<?xml version="1.0" standalone="no"?>
<!DOCTYPE svg PUBLIC "-//W3C//DTD SVG 1.1//EN" "http://www.w3.org/Graphics/SVG/1.1/DTD/svg11.dtd" >
<svg xmlns="http://www.w3.org/2000/svg" xmlns:xlink="http://www.w3.org/1999/xlink" version="1.1">
<metadata>
Created by FontForge 20170731 at Fri Jan  1 02:30:17 1904
 By Aleksey,,,
 !22! Soft 1992
</metadata>
<defs>
<font id="GenevaPlain" horiz-adv-x="674" >
  <font-face 
    font-family="Geneva"
    font-weight="400"
    font-stretch="normal"
    units-per-em="1000"
    panose-1="2 11 6 4 2 2 2 2 2 4"
    ascent="800"
    descent="-200"
    x-height="551"
    cap-height="766"
    bbox="-58 -237 1293 1057"
    underline-thickness="77"
    underline-position="-152"
    unicode-range="U+0020-2219"
  />
<missing-glyph horiz-adv-x="500" 
d="M40 667h420v-667h-420v667zM60 647v-627h380v627h-380z" />
    <glyph glyph-name=".notdef" horiz-adv-x="500" 
d="M40 667h420v-667h-420v667zM60 647v-627h380v627h-380z" />
    <glyph glyph-name="glyph1" horiz-adv-x="0" 
 />
    <glyph glyph-name="nonmarkingreturn" horiz-adv-x="333" 
 />
    <glyph glyph-name="space" unicode=" " horiz-adv-x="715" 
 />
    <glyph glyph-name="exclam" unicode="!" horiz-adv-x="306" 
d="M200 92v-92h-93v92h93zM214 766l-22 -575h-76l-24 575h122z" />
    <glyph glyph-name="quotedbl" unicode="&#x22;" horiz-adv-x="505" 
d="M199 796l-20 -306h-63l-24 306h107zM413 796l-21 -306h-63l-21 306h105z" />
    <glyph glyph-name="numbersign" unicode="#" 
d="M197 203l-55 -203h-72l53 203h-93v69h112l55 210h-167v69h187l58 215h71l-56 -215h186l57 215h74l-60 -215h95v-69h-115l-55 -210h170v-69h-187l-55 -203h-74l56 203h-185zM272 482l-56 -210h185l58 210h-187z" />
    <glyph glyph-name="dollar" unicode="$" 
d="M386 0v-77h-76v77q-136 7 -186 65q-49 55 -49 125v5h99v-5q0 -43 25 -73q26 -28 111 -38v265l-31 13q-105 42 -142 88q-34 47 -36 115q0 51 22 95q23 43 67 71q45 29 120 38v77h76v-77q109 -7 147 -53q37 -42 39 -94v-5h-99v5q0 25 -22 45q-20 16 -65 24v-270l42 -15
q45 -16 90 -46q43 -30 57 -64q14 -31 16 -75q0 -48 -22 -95q-22 -45 -65 -79q-40 -30 -118 -42zM291 452l19 -8v243q-60 -11 -87 -46q-26 -35 -26 -79q0 -36 19 -61q20 -25 75 -49zM410 308l-24 8v-234q44 4 66 22q21 17 32 43q11 30 11 56q0 35 -19 61q-20 25 -66 44z" />
    <glyph glyph-name="percent" unicode="%" horiz-adv-x="914" 
d="M80 368q-26 34 -37 73.5t-13 93.5q0 108 50 168q51 63 123 63q71 0 122 -63q50 -62 50 -168q0 -105 -50 -167q-47 -61 -122 -62q-74 0 -123 62zM231 0h-96l545 766h87zM589 62q-49 62 -50 167q0 106 50 168q51 63 123 63q70 0 122 -63q50 -61 50 -168q0 -105 -50 -167
t-122 -62q-74 0 -123 62zM138 651q-23 -48 -23 -116q0 -67 23 -115q25 -44 65 -45q37 0 64 45q24 47 24 115q0 70 -24 116q-24 45 -65 45q-38 0 -64 -45zM647 344q-22 -42 -24 -115q0 -70 24 -115q25 -44 65 -45q39 0 64 45q22 45 24 115q0 70 -24 115q-24 46 -64 46
q-38 0 -65 -46z" />
    <glyph glyph-name="ampersand" unicode="&#x26;" horiz-adv-x="734" 
d="M515 40l-18 23q-48 -45 -99 -65q-49 -21 -110 -21q-75 0 -131 30q-53 30 -87 87q-30 52 -32 117q0 78 52 148q50 68 132 111q-2 4 -8 13q-34 54 -42 74q-4 11 -14 39q-4 17 -4 35q0 38 23 78q25 40 64 59q42 20 92 20q75 0 118 -40q43 -37 43 -91q0 -59 -42 -118
q-46 -58 -108 -95q87 -145 169 -251q25 39 38 82q12 44 12 130v27h92v-11q0 -172 -92 -291q41 -50 122 -130h-133q-17 18 -37 40zM295 528l10 -14q50 28 78 68q26 38 26 66q0 17 -10 33q-8 17 -30 26q-19 9 -40 9q-39 0 -58 -25t-19 -53q0 -14 4 -29q6 -20 11 -31
q8 -18 28 -50zM361 244q-51 73 -99 160q-62 -32 -94 -84q-34 -50 -34 -106q0 -44 22 -81q21 -37 62 -58q40 -19 79 -21q25 0 63 11q36 13 89 58q-32 40 -88 121z" />
    <glyph glyph-name="quotesingle" unicode="'" horiz-adv-x="306" 
d="M222 796l-35 -306h-66l-37 306h138z" />
    <glyph glyph-name="parenleft" unicode="(" horiz-adv-x="452" 
d="M310 811h76q-83 -86 -123 -164q-36 -69 -58 -160q-19 -86 -19 -173q0 -88 19 -174q20 -89 58 -160q38 -75 123 -164h-76q-65 57 -119 142q-55 88 -79 176q-24 90 -24 180q0 88 24 179q21 87 79 177q53 85 119 141z" />
    <glyph glyph-name="parenright" unicode=")" horiz-adv-x="452" 
d="M141 -184h-76q89 95 124 164q34 67 56 160q21 89 21 174q0 90 -21 173q-20 90 -56 160q-39 76 -124 164h76q60 -50 119 -141q54 -87 79 -177q23 -83 25 -179q0 -90 -25 -180q-25 -92 -79 -176t-119 -142z" />
    <glyph glyph-name="asterisk" unicode="*" horiz-adv-x="513" 
d="M343 368l-87 155l-87 -155l-64 41l100 153l-167 33l21 73l167 -51l-9 171h78l-9 -171l168 51l20 -73l-167 -33l99 -153z" />
    <glyph glyph-name="plus" unicode="+" 
d="M375 314h237v-77h-237v-237h-77v237h-236v77h236v237h77v-237z" />
    <glyph glyph-name="comma" unicode="," horiz-adv-x="306" 
d="M162 -132q-28 -30 -74 -52v60q22 12 36 34q11 17 19 42q4 14 6 48h-61v130h130v-81q0 -71 -14 -111q-13 -37 -42 -70z" />
    <glyph glyph-name="hyphen" unicode="-" horiz-adv-x="383" 
d="M344 272h-306v76h306v-76z" />
    <glyph glyph-name="period" unicode="." horiz-adv-x="306" 
d="M218 130v-130h-130v130h130z" />
    <glyph glyph-name="slash" unicode="/" horiz-adv-x="543" 
d="M520 788l-409 -811h-88l411 811h86z" />
    <glyph glyph-name="zero" unicode="0" 
d="M538 86q-75 -107 -202 -109q-123 0 -202 109q-76 109 -76 297q0 187 76 296q78 109 202 109q127 0 202 -109q76 -106 78 -296q0 -186 -78 -297zM196 154q43 -98 140 -100q96 0 141 100q43 101 43 229q0 129 -43 228t-141 101q-95 0 -140 -101q-41 -98 -43 -228
q0 -128 43 -229z" />
    <glyph glyph-name="one" unicode="1" 
d="M396 0h-92v671l-155 -62v85l155 72h92v-766z" />
    <glyph glyph-name="two" unicode="2" 
d="M582 0h-494v80q0 61 38 134t130 144l51 40q103 80 132 119q26 36 28 83q0 44 -38 78q-37 34 -106 34q-62 0 -94 -25q-30 -22 -30 -55v-5h-92v5q0 40 27 77q31 37 74 58q47 21 118 21q130 0 185 -55q55 -56 56 -132q0 -41 -19 -82q-16 -40 -67 -87q-54 -46 -83 -67
l-38 -26q-176 -119 -176 -236v-19h398v-84z" />
    <glyph glyph-name="three" unicode="3" 
d="M241 383h-46v77h58q69 0 105 21q36 19 60 52q22 35 22 72q0 50 -37 78q-35 27 -96 29q-33 0 -65 -9q-29 -9 -46 -30q-14 -20 -16 -45v-5h-88v5q0 61 51 110q50 50 169 50q113 0 168 -48q56 -47 56 -123q0 -38 -16 -78q-16 -34 -48 -63q-34 -29 -92 -46q94 -26 140 -78
q46 -53 47 -132q0 -89 -66 -167q-63 -76 -196 -76q-114 0 -168 48q-52 50 -53 111v5h92v-5q0 -41 38 -61q39 -21 100 -21q47 0 84 17q34 18 55 57q18 41 18 86q0 72 -57 120q-55 49 -173 49z" />
    <glyph glyph-name="four" unicode="4" 
d="M513 233v-233h-92v233h-367v77l367 456h92v-456h107v-77h-107zM155 310h266v334z" />
    <glyph glyph-name="five" unicode="5" 
d="M219 394h-70v372h394v-85h-310v-206h24q119 0 184 -31q66 -29 99 -81q34 -53 34 -129q0 -101 -62 -178q-61 -79 -190 -79q-99 0 -161 44q-61 45 -61 108v5h91v-5q0 -33 35 -54t95 -21q80 0 119 51t39 117q0 73 -52 122q-50 50 -208 50z" />
    <glyph glyph-name="six" unicode="6" 
d="M181 384l1 -26q35 45 65 65q31 20 66 33q28 9 70 11q98 0 158 -71q58 -69 60 -170q0 -68 -31 -127q-32 -58 -86 -90q-54 -30 -120 -32q-74 0 -142 44q-65 45 -100 135q-34 87 -34 222q0 188 77 299q75 111 220 111q99 0 146 -43q49 -42 51 -98v-5h-92v5q0 25 -26 45
q-26 19 -78 20q-62 0 -106 -37q-45 -33 -73 -119q-14 -49 -19 -85.5t-7 -86.5zM285 75q36 -21 79 -21q60 0 101 50q40 51 40 125t-42 117q-43 44 -104 44q-68 0 -111 -50q-40 -46 -42 -118q0 -44 21 -86q19 -39 58 -61z" />
    <glyph glyph-name="seven" unicode="7" 
d="M275 38v-38h-99v33q0 78 23 162q21 79 119 226q78 115 165 237l17 23h-423v85h516v-85q-12 -17 -13 -18l-71 -95q-64 -87 -136 -219q-70 -127 -84 -195q-14 -70 -14 -116z" />
    <glyph glyph-name="eight" unicode="8" 
d="M449 422q74 -32 113 -92q37 -56 37 -121q0 -59 -32 -117q-35 -58 -89 -87q-55 -27 -142 -28q-86 0 -141 28q-54 29 -88 87q-32 54 -32 117q0 66 36 121q36 59 112 92q-57 28 -89 72q-29 43 -29 97q0 56 29 102q29 45 85 71q57 24 117 24q61 0 118 -24q57 -26 84 -72
q31 -46 31 -101q0 -56 -31 -97q-28 -42 -89 -72zM238 497q40 -37 98 -37q60 0 98 37q39 38 39 90q0 56 -42 90q-39 33 -95 35q-51 0 -95 -35q-40 -33 -40 -90q0 -52 37 -90zM419 361q-35 20 -83 22q-42 0 -82 -22q-39 -23 -61 -63q-21 -37 -23 -84q0 -39 21 -81
q22 -38 62 -59q37 -18 83 -20q44 0 84 20q39 20 62 59q21 41 21 81q0 44 -22 84t-62 63z" />
    <glyph glyph-name="nine" unicode="9" 
d="M492 381v27q-28 -37 -67 -67q-36 -23 -65 -32t-70 -11q-100 0 -159 71q-58 70 -58 170q0 70 30 128q32 56 86 89q52 32 120 32q77 0 142 -45q65 -43 101 -134q34 -93 34 -221q0 -187 -78 -300q-74 -109 -220 -111q-98 0 -147 43q-49 42 -49 97v5h92v-5q0 -22 25 -43
q26 -20 78 -20q63 0 106 36q44 35 73 119q26 81 26 172zM388 691q-36 19 -79 21q-59 0 -100 -50q-40 -50 -40 -126t41 -118q43 -41 105 -43q67 0 109 49q41 49 43 119q0 45 -22 86q-19 39 -57 62z" />
    <glyph glyph-name="colon" unicode=":" horiz-adv-x="306" 
d="M218 130v-130h-130v130h130zM218 551v-130h-130v130h130z" />
    <glyph glyph-name="semicolon" unicode=";" horiz-adv-x="306" 
d="M162 -132q-28 -30 -74 -52v60q22 12 36 34q11 17 19 42q4 14 6 48h-61v130h130v-81q0 -71 -14 -111q-13 -37 -42 -70zM218 551v-130h-130v130h130z" />
    <glyph glyph-name="less" unicode="&#x3c;" 
d="M62 274l550 277v-85l-380 -192l380 -189v-85z" />
    <glyph glyph-name="equal" unicode="=" 
d="M62 398h550v-77h-550v77zM62 229h550v-76h-550v76z" />
    <glyph glyph-name="greater" unicode="&#x3e;" 
d="M612 280l-550 -280v88l379 192l-379 188v83z" />
    <glyph glyph-name="greater" 
d="M612 280l-550 -280v88l379 192l-379 188v83z" />
    <glyph glyph-name="question" unicode="?" horiz-adv-x="574" 
d="M291 263v-68h-92v46q0 81 25 132q22 47 55 83l38 41q39 44 54 68q14 23 16 49q0 44 -39 70q-35 27 -92 28q-45 0 -73 -17q-25 -17 -26 -55v-5h-95v5q0 34 25 71q28 37 75 57q48 20 104 20q58 0 111 -22q49 -22 78 -62q27 -38 28 -82q0 -23 -12 -59q-10 -36 -68 -89
l-34 -33q-33 -29 -57 -67q-21 -34 -21 -111zM291 92v-92h-92v92h92z" />
    <glyph glyph-name="at" unicode="@" horiz-adv-x="880" 
d="M437 38q93 0 185 62v-78q-87 -45 -184 -45q-105 0 -195 51q-90 55 -135 148q-46 93 -46 207q0 112 46 207q46 94 133 146q88 52 212 52q114 0 194 -46q81 -45 127 -125q43 -78 45 -175q0 -65 -25 -123q-26 -52 -70 -83q-44 -29 -96 -29q-43 0 -81 22q-36 23 -43 75
q-27 -40 -63 -66q-33 -24 -69 -24q-37 0 -70 21q-32 23 -49 60q-18 38 -18 83q0 58 30 113q30 58 76 81q44 23 143 25h96v-214q0 -69 19 -92q17 -21 47 -23q43 0 76 44t35 121q0 86 -41 154q-38 67 -111 103q-70 37 -156 37q-89 0 -166 -41q-75 -41 -115 -122
q-40 -80 -40 -175q0 -93 38 -179q37 -86 115 -128q79 -44 156 -44zM504 396v139h-31q-42 0 -62 -6q-19 -4 -36 -18q-30 -23 -43 -56q-11 -33 -13 -77q0 -48 19 -68q19 -19 41 -19q24 0 52 19q26 18 73 86z" />
    <glyph glyph-name="A" unicode="A" horiz-adv-x="734" 
d="M194 210l-87 -210h-92l314 766h100l290 -766h-108l-79 210h-338zM369 642l-145 -355h279z" />
    <glyph glyph-name="B" unicode="B" horiz-adv-x="642" 
d="M527 495q-30 -52 -110 -93q89 -21 130 -75q42 -51 42 -118q0 -56 -28 -103q-28 -48 -80 -78q-54 -28 -179 -28h-229v766h203q138 0 187 -21q46 -19 71 -58q24 -41 25 -87q0 -52 -32 -105zM172 689v-257h96q74 0 111 21q34 17 58 55q23 38 23 77q0 40 -36 73
q-32 29 -123 31h-129zM172 356v-279h141q99 0 135 36q38 37 38 89q0 40 -23 75q-25 34 -71 56q-48 23 -146 23h-74z" />
    <glyph glyph-name="C" unicode="C" horiz-adv-x="658" 
d="M527 160v5h93v-5q0 -46 -31 -92q-30 -45 -85 -69q-53 -22 -126 -22q-147 0 -240 102q-92 101 -93 304q0 199 93 304q92 102 240 102q69 0 126 -22q53 -21 85 -70q29 -46 31 -91v-5h-93v5q0 29 -17 54q-17 26 -50 38q-34 14 -79 14q-116 0 -175 -93q-57 -93 -58 -236
q0 -142 59 -238q57 -91 174 -91q81 0 113 32q33 33 33 74z" />
    <glyph glyph-name="D" unicode="D" horiz-adv-x="708" 
d="M298 0h-225v766h211q155 0 226 -43q71 -40 111 -128q41 -87 41 -209q0 -121 -37 -201q-34 -83 -109 -136q-75 -49 -218 -49zM172 689v-605h118q105 0 157 31q52 28 82 96q29 68 30 167q0 94 -27 170q-25 71 -78 107q-56 34 -167 34h-115z" />
    <glyph glyph-name="E" unicode="E" horiz-adv-x="582" 
d="M531 0h-458v766h432v-85h-333v-241h291v-76h-291v-280h359v-84z" />
    <glyph glyph-name="F" unicode="F" horiz-adv-x="559" 
d="M172 0h-99v766h432v-85h-333v-264h291v-77h-291v-340z" />
    <glyph glyph-name="G" unicode="G" horiz-adv-x="681" 
d="M620 379v-344q-120 -56 -232 -58q-115 0 -186 45q-19 12 -42.5 34.5t-39.5 44.5t-32 53q-42 88 -43 220q0 147 41 235q39 83 113 131q72 48 174 48q69 0 124 -21q57 -21 90 -67q31 -40 33 -87v-5h-93v5q0 27 -20 50t-53 35q-36 14 -76 14q-112 0 -170 -88
q-58 -85 -60 -240q0 -150 61 -242q60 -88 170 -88q64 0 148 30v218h-171v77h264z" />
    <glyph glyph-name="H" unicode="H" horiz-adv-x="696" 
d="M172 348v-348h-99v766h99v-342h352v342h99v-766h-99v348h-352z" />
    <glyph glyph-name="I" unicode="I" horiz-adv-x="244" 
d="M172 766v-766h-99v766h99z" />
    <glyph glyph-name="J" unicode="J" horiz-adv-x="497" 
d="M19 125v5h100v-5q0 -21 11 -38q12 -17 36 -24q18 -7 52 -9q31 0 57 14q27 14 39 43q11 30 11 129v526h99v-528q0 -126 -26 -171t-67 -68q-38 -22 -107 -22q-112 0 -158 46q-45 45 -47 102z" />
    <glyph glyph-name="K" unicode="K" horiz-adv-x="670" 
d="M172 400v-400h-99v766h99v-366l320 366h113l-316 -360l365 -406h-125z" />
    <glyph glyph-name="L" unicode="L" horiz-adv-x="589" 
d="M574 0h-501v766h99v-682h402v-84z" />
    <glyph glyph-name="M" unicode="M" horiz-adv-x="796" 
d="M157 458v-458h-84v766h97l238 -548l218 548h97v-766h-89v457q1 34 1.5 68t1.5 68h-3l-48 -137l-137 -341h-100l-147 343l-45 124h-2q1 -31 1.5 -62t0.5 -62z" />
    <glyph glyph-name="N" unicode="N" horiz-adv-x="715" 
d="M165 546v-546h-92v766h98l350 -545l32 -60l-2 60v545h91v-766h-97l-351 546l-31 62z" />
    <glyph glyph-name="O" unicode="O" horiz-adv-x="742" 
d="M605 83q-88 -104 -234 -106q-144 0 -235 106q-90 106 -91 300q0 192 91 300q92 105 235 105q144 0 234 -105q91 -106 91 -300q0 -99 -22.5 -173.5t-68.5 -126.5zM208 143q58 -87 163 -89q104 0 163 89q57 90 59 240q0 150 -59 238q-58 91 -163 91t-163 -91
q-58 -88 -60 -238q0 -146 60 -240z" />
    <glyph glyph-name="P" unicode="P" horiz-adv-x="589" 
d="M172 302v-302h-99v766h213q121 0 172 -26q50 -24 74 -72q26 -50 27 -112q0 -108 -74 -180q-72 -72 -218 -74h-95zM172 689v-310h67q132 0 174 50q41 50 43 123q0 58 -35 99q-32 36 -133 38h-116z" />
    <glyph glyph-name="Q" unicode="Q" horiz-adv-x="742" 
d="M546 -156q-76 33 -174 131q-124 9 -189 59q-65 51 -100 135q-37 85 -38 213q0 193 91 301q92 105 236 105t234 -105q90 -106 90 -300q0 -102 -21 -172q-21 -73 -71 -132q-49 -58 -137 -88q51 -45 106 -66q58 -22 120 -22q47 0 95 17v-88q-43 -14 -98 -16q-69 0 -144 28z
M208 143q58 -88 164 -89q103 0 162 89q57 90 59 240q0 150 -59 238q-58 91 -162 91q-106 0 -164 -91q-58 -88 -60 -238q0 -146 60 -240z" />
    <glyph glyph-name="R" unicode="R" horiz-adv-x="612" 
d="M172 329v-329h-99v766h236q89 0 131 -26q44 -25 70 -72q25 -52 25 -103q0 -47 -17 -87q-16 -40 -48 -75q-35 -34 -97 -59q25 -14 37 -26q8 -8 30 -40q20 -30 31 -52l122 -226h-114l-106 201q-40 74 -100 128h-101zM172 689v-284h98q61 0 93 19q30 18 50 56q18 35 19 78
q0 35 -15 63t-43 49q-28 19 -97 19h-105z" />
    <glyph glyph-name="S" unicode="S" horiz-adv-x="612" 
d="M54 168v4h100v-4q0 -65 44 -89q44 -23 119 -25q67 0 109 38q45 36 45 100q0 51 -38 82q-38 32 -116 63l-39 17q-81 32 -122 66q-40 31 -60 73q-19 41 -19 89q0 88 60 146q63 60 193 60q121 0 169 -45q48 -43 48 -103v-5h-100v5q0 19 -15 37q-14 17 -44 26q-24 7 -67 9
q-72 0 -109 -37q-34 -37 -34 -84q0 -31 16 -60q17 -27 46 -45q27 -16 99 -49l47 -20q114 -49 150 -103q38 -51 38 -116q0 -60 -31 -112q-31 -54 -84 -82q-52 -25 -145 -27q-86 0 -143 21q-57 19 -87 67q-30 47 -30 103z" />
    <glyph glyph-name="T" unicode="T" horiz-adv-x="646" 
d="M375 0h-99v689h-261v77h616v-77h-256v-689z" />
    <glyph glyph-name="U" unicode="U" 
d="M62 260v506h99v-492q0 -107 21 -146q20 -36 65 -55q48 -19 99 -19q50 0 93 19q41 19 61 60q20 45 20 175v458h92v-483q0 -136 -31 -189q-31 -55 -89 -86q-56 -29 -147 -31q-83 0 -149 25q-69 26 -102 78q-32 53 -32 180z" />
    <glyph glyph-name="V" unicode="V" horiz-adv-x="734" 
d="M367 124l259 642h93l-312 -766h-100l-292 766h109z" />
    <glyph glyph-name="W" unicode="W" horiz-adv-x="957" 
d="M458 548l-145 -548h-101l-174 766h95l123 -540l17 -92h4l17 92l139 540h99l137 -541l16 -91h4l16 91l126 541h87l-178 -766h-101l-141 548l-18 94h-5z" />
    <glyph glyph-name="X" unicode="X" horiz-adv-x="616" 
d="M309 308l-193 -308h-101l246 389l-227 377h109l173 -289l185 289h99l-235 -369l236 -397h-107z" />
    <glyph glyph-name="Y" unicode="Y" horiz-adv-x="616" 
d="M359 361v-361h-99v361l-249 405h116l191 -309l189 309h97z" />
    <glyph glyph-name="Z" unicode="Z" horiz-adv-x="582" 
d="M149 92h386v-92h-497v92l381 589h-354v85h463v-85z" />
    <glyph glyph-name="bracketleft" unicode="[" horiz-adv-x="452" 
d="M199 -107h165v-77h-249v995h249v-77h-165v-841z" />
    <glyph glyph-name="backslash" unicode="\" horiz-adv-x="543" 
d="M23 788h88l409 -811h-86z" />
    <glyph glyph-name="bracketright" unicode="]" horiz-adv-x="452" 
d="M253 734h-165v77h248v-995h-248v77h165v841z" />
    <glyph glyph-name="asciicircum" unicode="^" horiz-adv-x="606" 
d="M99 769l207 288l213 -282l-60 -49l-153 199l-144 -199z" />
    <glyph glyph-name="underscore" unicode="_" 
d="M642 -77h-612v77h612v-77z" />
    <glyph glyph-name="underscore" unicode="&#xad;" 
d="M642 -77h-612v77h612v-77z" />
    <glyph glyph-name="grave" unicode="`" horiz-adv-x="597" 
d="M260 796l145 -161h-84l-168 161h107z" />
    <glyph glyph-name="a" unicode="a" horiz-adv-x="559" 
d="M509 0h-97q-12 40 -14 77q-59 -59 -103 -77q-42 -15 -82 -15q-65 0 -112 39q-46 41 -47 111q0 81 66 124q65 42 228 75l50 9v62q0 51 -34 72q-35 20 -82 20q-58 0 -89 -25q-30 -23 -32 -59v-8h-99v8q0 39 30 75q29 38 82 59q52 20 112 20q62 0 109 -20q51 -19 72 -50
q21 -29 23 -119v-214q0 -48 1 -74q2 -39 18 -90zM398 223v55l-27 -6q-142 -37 -179 -65q-38 -30 -39 -74q0 -20 12 -40q9 -16 34 -29q23 -10 44 -10q38 0 76 22q38 24 59 60q20 38 20 87z" />
    <glyph glyph-name="b" unicode="b" horiz-adv-x="616" 
d="M162 57q-2 -39 -5 -57h-92q2 21 4 66q2 39 3 63q1 17 1 34v633h92v-340q32 49 56 67q21 17 58 33q27 9 65 11q62 0 116 -36q51 -33 81 -102q29 -65 29 -152q0 -125 -61 -209q-59 -83 -169 -83q-36 0 -66 10q-31 9 -56 29q-22 19 -53 72zM183 389q-16 -46 -18 -114
q0 -93 40 -154q39 -59 113 -59q67 0 112 52q45 53 45 160q0 124 -46 171q-43 47 -108 49q-43 0 -82 -27q-36 -26 -56 -78z" />
    <glyph glyph-name="c" unicode="c" horiz-adv-x="551" 
d="M417 136v5h92v-5q0 -38 -28 -73q-25 -37 -73 -59q-46 -19 -109 -19q-121 0 -188 77q-65 77 -66 214q0 133 66 213q68 77 188 78q64 0 109 -21q47 -20 73 -55q28 -32 28 -77v-5h-92v5q2 30 -27 53q-26 21 -86 23q-68 0 -115 -51t-48 -163q0 -113 48 -164q45 -50 115 -50
q58 0 86 22q26 23 27 52z" />
    <glyph glyph-name="d" unicode="d" horiz-adv-x="608" 
d="M452 455v341h91v-796h-91v96q-32 -56 -55 -75q-26 -19 -61 -28q-34 -8 -65 -8q-64 0 -114 34q-51 32 -82 102q-29 69 -30 153q0 124 61 209q62 83 170 84q33 0 66 -11q30 -10 56 -30q20 -17 54 -71zM432 163q19 53 20 113q0 92 -41 153q-39 59 -114 61q-66 0 -111 -54
t-45 -159q0 -123 44 -172q42 -47 110 -47q46 0 82 26q38 29 55 79z" />
    <glyph glyph-name="e" unicode="e" horiz-adv-x="582" 
d="M432 136v5h92v-5q0 -37 -29 -73q-28 -38 -77 -59q-49 -19 -110 -19q-125 0 -194 81q-69 83 -69 206q0 124 73 211q74 83 186 84q62 0 114 -28q50 -26 80 -84q29 -57 29 -160v-31h-391q0 -86 48 -146q47 -56 132 -56q62 0 88 22q28 24 28 52zM200 448q-41 -38 -58 -115
h298v10q0 40 -19 75q-19 39 -50 54q-34 18 -76 18q-51 0 -95 -42z" />
    <glyph glyph-name="f" unicode="f" horiz-adv-x="394" 
d="M214 475v-475h-92v475h-80v76h80v26q0 120 51 169q50 50 132 50q34 0 77 -7v-75q-20 2 -62 5q-44 0 -75 -22q-31 -21 -31 -103v-43h161v-76h-161z" />
    <glyph glyph-name="g" unicode="g" horiz-adv-x="616" 
d="M452 51v65q-31 -60 -73 -87q-47 -29 -107 -29q-98 0 -163 77q-64 78 -64 203q0 80 30 151q26 67 80 101q51 33 121 35q52 0 93 -22q40 -19 83 -82v88h91v-450q0 -170 -36 -224q-33 -53 -90 -81q-52 -24 -127 -26q-67 0 -122 20q-53 20 -83 56q-27 36 -27 73v8h90v-8
q0 -36 41 -57q36 -23 100 -23q51 0 84 18q35 16 56 55q21 37 23 139zM408 133q43 64 44 159q0 86 -46 143q-45 55 -109 55q-67 0 -111 -56q-45 -56 -45 -155q0 -63 19 -110q16 -47 54 -72q38 -24 81 -24q70 0 113 60z" />
    <glyph glyph-name="h" unicode="h" horiz-adv-x="589" 
d="M165 271v-271h-92v796h92v-340q29 44 55 66q26 20 58 33q25 10 66 12q52 0 93 -22q41 -20 64 -62q21 -39 23 -132v-351h-92v311q0 75 -10 105q-9 31 -37 48q-27 18 -64 18t-77 -23q-37 -26 -58 -67q-21 -42 -21 -121z" />
    <glyph glyph-name="i" unicode="i" horiz-adv-x="237" 
d="M73 0v551h92v-551h-92zM165 674h-92v92h92v-92z" />
    <glyph glyph-name="i" unicode="&#xb3;" horiz-adv-x="237" 
d="M73 0v551h92v-551h-92zM165 674h-92v92h92v-92z" />
    <glyph glyph-name="j" unicode="j" horiz-adv-x="279" 
d="M111 0v551h92v-551q0 -85 -20 -124q-18 -39 -64 -66q-42 -22 -97 -24q-32 0 -80 8v74l21 -2q25 -3 43 -3q45 0 76 23q29 23 29 114zM203 677h-92v89h92v-89z" />
    <glyph glyph-name="k" unicode="k" horiz-adv-x="543" 
d="M169 289v-289h-96v796h96v-507l244 262h106l-239 -256l247 -295h-114z" />
    <glyph glyph-name="l" unicode="l" horiz-adv-x="237" 
d="M165 796v-796h-92v796h92z" />
    <glyph glyph-name="m" unicode="m" horiz-adv-x="903" 
d="M165 268v-268h-92v551h92v-99q26 47 52 71q22 18 57 33q25 9 63 11q34 0 65 -11q33 -12 55 -32q22 -22 44 -72q29 48 56 69q26 22 55 34q24 10 62 12q45 0 85 -23q38 -23 58 -62q21 -39 21 -138v-344h-93v306q0 96 -11 123q-14 27 -32 39q-20 14 -49 14q-42 0 -76 -25
q-36 -29 -55 -69q-21 -42 -21 -120v-268h-92v306q0 99 -10 123q-11 26 -34 40q-22 12 -50 14q-36 0 -74 -27q-35 -26 -56 -70q-20 -40 -20 -118z" />
    <glyph glyph-name="n" unicode="n" horiz-adv-x="589" 
d="M165 271v-271h-92v551h92v-95q29 44 55 66q26 20 58 33q25 10 66 12q52 0 93 -22q41 -20 64 -62q21 -39 23 -132v-351h-92v311q0 75 -10 105q-9 31 -38 48q-28 18 -63 18q-37 0 -77 -23q-37 -26 -58 -67q-21 -42 -21 -121z" />
    <glyph glyph-name="o" unicode="o" horiz-adv-x="612" 
d="M490 58q-76 -73 -184 -73t-184 73q-75 72 -77 218q0 142 77 217q77 73 184 74q107 0 184 -74q76 -74 77 -217q0 -144 -77 -218zM187 120q43 -58 119 -58q74 0 119 58q44 57 46 156q0 96 -46 154q-43 60 -119 60q-74 0 -119 -60q-44 -56 -46 -154q0 -95 46 -156z" />
    <glyph glyph-name="p" unicode="p" horiz-adv-x="608" 
d="M157 96v-310h-92v765h92v-95q29 48 54 68q24 18 59 32q29 9 66 11q63 0 117 -36q50 -32 80 -102q28 -64 30 -152q0 -125 -61 -209q-59 -83 -170 -83q-36 0 -66 10q-29 8 -56 29q-24 22 -53 72zM176 389q-17 -49 -19 -114q0 -93 40 -154q41 -59 114 -59q68 0 111 52
q45 51 45 160q0 124 -47 171q-45 47 -107 49q-41 0 -82 -27q-35 -26 -55 -78z" />
    <glyph glyph-name="q" unicode="q" horiz-adv-x="608" 
d="M452 455v96h91v-765h-91v310q-33 -53 -55 -70q-26 -20 -59 -30q-35 -11 -66 -11q-63 0 -115 34q-51 32 -82 102q-29 69 -30 153q0 124 61 209q62 83 170 84q33 0 66 -11q30 -10 56 -30q20 -17 54 -71zM432 163q19 53 20 113q0 92 -41 153q-39 59 -114 61q-66 0 -111 -54
t-45 -159q0 -124 48 -172q45 -47 106 -47q46 0 82 26q38 29 55 79z" />
    <glyph glyph-name="r" unicode="r" horiz-adv-x="390" 
d="M165 273v-273h-92v551h92v-97q20 40 48 65q23 19 58 35q29 11 62 13q28 0 49 -9v-95q-30 14 -69 16q-52 0 -101 -46q-47 -45 -47 -160z" />
    <glyph glyph-name="s" unicode="s" horiz-adv-x="514" 
d="M38 143v2h92v-2q0 -35 28 -59q25 -22 91 -22q58 0 91 27q37 27 37 65q0 50 -70 72l-46 14l-32 11l-63 19q-107 38 -109 132q0 66 52 115q53 49 158 50q102 0 145 -43q44 -42 44 -94v-2h-92v2q0 28 -29 44q-26 14 -73 16q-56 0 -85 -23q-30 -24 -30 -57q0 -24 20 -41
q18 -16 63 -30l45 -12l32 -9q65 -19 83 -27q19 -9 33 -20q24 -18 35 -43q11 -27 11 -59q0 -78 -56 -131q-54 -53 -164 -53q-69 0 -113 20q-43 19 -71 56q-27 35 -27 82z" />
    <glyph glyph-name="s" horiz-adv-x="514" 
d="M38 143v2h92v-2q0 -35 28 -59q25 -22 91 -22q58 0 91 27q37 27 37 65q0 50 -70 72l-46 14l-32 11l-63 19q-107 38 -109 132q0 66 52 115q53 49 158 50q102 0 145 -43q44 -42 44 -94v-2h-92v2q0 28 -29 44q-26 14 -73 16q-56 0 -85 -23q-30 -24 -30 -57q0 -24 20 -41
q18 -16 63 -30l45 -12l32 -9q65 -19 83 -27q19 -9 33 -20q24 -18 35 -43q11 -27 11 -59q0 -78 -56 -131q-54 -53 -164 -53q-69 0 -113 20q-43 19 -71 56q-27 35 -27 82z" />
    <glyph glyph-name="t" unicode="t" horiz-adv-x="447" 
d="M327 62q30 0 82 16v-77q-64 -16 -102 -16q-50 0 -93 20q-39 20 -62 61q-22 38 -22 125v284h-96v76h96v130h92v-130h161v-76h-161v-258q0 -75 11 -101q10 -26 36 -41q23 -13 58 -13z" />
    <glyph glyph-name="u" unicode="u" horiz-adv-x="589" 
d="M424 280v271h92v-551h-92v96q-27 -44 -55 -67q-25 -20 -57 -33q-30 -11 -64 -11q-74 0 -130 42q-53 45 -53 175v349h92v-311q0 -120 32 -146q33 -25 80 -25q40 0 76 24q37 22 58 67q21 44 21 120z" />
    <glyph glyph-name="v" unicode="v" horiz-adv-x="570" 
d="M327 0h-92l-224 551h99l177 -432l180 432h92z" />
    <glyph glyph-name="w" unicode="w" horiz-adv-x="788" 
d="M266 0h-93l-158 551h96l98 -343l12 -82h10l15 82l98 343h92l110 -342l19 -83h10l14 83l97 342h87l-158 -551h-92l-114 360l-15 80h-8l-16 -80z" />
    <glyph glyph-name="x" unicode="x" horiz-adv-x="535" 
d="M265 209l-143 -209h-96l192 279l-180 272h105l129 -193l132 193h95l-180 -263l189 -288h-106z" />
    <glyph glyph-name="y" unicode="y" horiz-adv-x="578" 
d="M242 2l11 21l-238 528h102l184 -410l173 410h93l-233 -551q-45 -110 -78 -147t-67 -52t-94 -15h-70v77h53q39 0 66 10q29 9 47 32q18 19 51 97z" />
    <glyph glyph-name="z" unicode="z" horiz-adv-x="559" 
d="M172 77h333v-77h-447v77l326 398h-319v76h428v-76z" />
    <glyph glyph-name="braceleft" unicode="{" horiz-adv-x="456" 
d="M103 276v77h26q48 0 64 25q17 25 17 58q0 44 -11 85l-11 51q-12 50 -12 94q0 64 46 106q47 39 111 39h7v-77h-9q-26 0 -49 -21q-21 -22 -22 -65q0 -13 3 -25l5 -24l11 -59q12 -66 12 -89q0 -38 -24 -79q-23 -38 -79 -58q56 -20 79 -59t24 -78q0 -22 -12 -90l-11 -59
l-5 -24q0 -1 -3 -25q0 -42 22 -64q21 -22 49 -22h9v-77h-7q-64 0 -111 41q-46 39 -46 105q0 43 12 94l11 50q11 47 11 86q0 32 -17 59q-15 24 -64 25h-26z" />
    <glyph glyph-name="bar" unicode="|" horiz-adv-x="248" 
d="M165 -23h-81v811h81v-811z" />
    <glyph glyph-name="bar" unicode="&#xa6;" horiz-adv-x="248" 
d="M165 -23h-81v811h81v-811z" />
    <glyph glyph-name="braceright" unicode="}" horiz-adv-x="456" 
d="M353 353v-77h-27q-46 0 -64 -25q-17 -28 -17 -60q0 -42 11 -85l12 -50q12 -49 12 -94q0 -65 -47 -105q-46 -41 -111 -41h-7v77h9q28 0 49 22q22 21 22 65q0 17 -2 24l-5 24l-11 59q-12 66 -12 90q0 38 24 78q22 38 79 59q-55 18 -79 58q-24 39 -24 79q0 22 12 89l11 59
l5 24q2 16 2 25q0 43 -21 64q-21 22 -50 22h-9v77h7q65 0 111 -39q46 -41 47 -106q0 -44 -12 -94l-12 -51q-11 -41 -11 -85q0 -32 17 -58q16 -25 64 -25h27z" />
    <glyph glyph-name="asciitilde" unicode="~" horiz-adv-x="606" 
d="M90 766h-60v9q0 65 39 111q36 46 103 48q18 0 31 -4q19 -4 35 -10q21 -7 60 -30l60 -32q53 -31 88 -31q38 0 55 27q17 26 17 57v8h64v-8q0 -83 -48 -122q-46 -38 -98 -38q-48 0 -129 45l-50 29q-61 33 -92 33q-21 0 -38 -11q-14 -9 -27 -33q-10 -21 -10 -39v-9z" />
    <glyph glyph-name="Agrave" horiz-adv-x="325" 
d="M287 490l-151 -216l151 -212h-84l-161 175v77l165 176h80z" />
    <glyph glyph-name="quoteleft" horiz-adv-x="306" 
d="M144 760q31 32 74 51v-59q-26 -16 -36 -34q-12 -19 -19 -42q-6 -21 -6 -49h61v-130h-130v81q0 76 14 111q11 35 42 71z" />
    <glyph glyph-name="quoteleft" unicode="&#x2018;" horiz-adv-x="306" 
d="M144 760q31 32 74 51v-59q-26 -16 -36 -34q-12 -19 -19 -42q-6 -21 -6 -49h61v-130h-130v81q0 76 14 111q11 35 42 71z" />
    <glyph glyph-name="quoteright" horiz-adv-x="306" 
d="M162 548q-31 -32 -74 -51v60q22 12 36 33q10 17 19 41q4 15 6 50h-61v130h130v-81q0 -71 -14 -111q-13 -36 -42 -71z" />
    <glyph glyph-name="quoteright" unicode="&#x2019;" horiz-adv-x="306" 
d="M162 548q-31 -32 -74 -51v60q22 12 36 33q10 17 19 41q4 15 6 50h-61v130h130v-81q0 -71 -14 -111q-13 -36 -42 -71z" />
    <glyph glyph-name="quoteright" unicode="&#xb4;" horiz-adv-x="306" 
d="M162 548q-31 -32 -74 -51v60q22 12 36 33q10 17 19 41q4 15 6 50h-61v130h130v-81q0 -71 -14 -111q-13 -36 -42 -71z" />
    <glyph glyph-name="quotedblleft" horiz-adv-x="497" 
d="M335 744q30 33 74 52v-60q-22 -13 -36 -33q-12 -19 -18 -42q-7 -25 -8 -49h62v-130h-130v81q0 71 14 111q13 37 42 70zM144 744q30 33 74 52v-60q-24 -13 -36 -33q-11 -18 -19 -42q-6 -22 -6 -49h61v-130h-130v81q0 75 14 111q12 37 42 70z" />
    <glyph glyph-name="quotedblleft" unicode="&#x201c;" horiz-adv-x="497" 
d="M335 744q30 33 74 52v-60q-22 -13 -36 -33q-12 -19 -18 -42q-7 -25 -8 -49h62v-130h-130v81q0 71 14 111q13 37 42 70zM144 744q30 33 74 52v-60q-24 -13 -36 -33q-11 -18 -19 -42q-6 -22 -6 -49h61v-130h-130v81q0 75 14 111q12 37 42 70z" />
    <glyph glyph-name="quotedblright" horiz-adv-x="497" 
d="M162 533q-31 -32 -74 -51v59q22 14 36 34q10 17 19 41q4 16 6 50h-61v130h130v-81q0 -71 -14 -111q-13 -36 -42 -71zM353 533q-29 -32 -74 -51v59q22 14 36 34q14 22 19 41q6 23 6 50h-61v130h130v-81q0 -75 -14 -111q-14 -39 -42 -71z" />
    <glyph glyph-name="quotedblright" unicode="&#x201d;" horiz-adv-x="497" 
d="M162 533q-31 -32 -74 -51v59q22 14 36 34q10 17 19 41q4 16 6 50h-61v130h130v-81q0 -71 -14 -111q-13 -36 -42 -71zM353 533q-29 -32 -74 -51v59q22 14 36 34q14 22 19 41q6 23 6 50h-61v130h130v-81q0 -75 -14 -111q-14 -39 -42 -71z" />
    <glyph glyph-name="endash" horiz-adv-x="520" 
d="M490 261h-460v75h460v-75z" />
    <glyph glyph-name="endash" unicode="&#x2013;" horiz-adv-x="520" 
d="M490 261h-460v75h460v-75z" />
    <glyph glyph-name="emdash" horiz-adv-x="1040" 
d="M1010 261h-980v75h980v-75z" />
    <glyph glyph-name="emdash" unicode="&#x2014;" horiz-adv-x="1040" 
d="M1010 261h-980v75h980v-75z" />
    <glyph glyph-name="trademark" horiz-adv-x="766" 
d="M230 383h-63v330h-125v53h312v-53h-124v-330zM452 624v-241h-56v383h60l107 -251l100 251h60v-383h-59v244l-75 -190h-59z" />
    <glyph glyph-name="trademark" unicode="&#x2122;" horiz-adv-x="766" 
d="M230 383h-63v330h-125v53h312v-53h-124v-330zM452 624v-241h-56v383h60l107 -251l100 251h60v-383h-59v244l-75 -190h-59z" />
    <glyph glyph-name="Atilde" horiz-adv-x="325" 
d="M38 62l152 215l-152 213h84l161 -176v-77l-165 -175h-80z" />
    <glyph glyph-name="ydieresis" unicode="&#xa1;" horiz-adv-x="597" 
d="M165 927h63q5 -39 29 -66q23 -29 54 -30q29 0 54 30q23 29 28 66h63q-4 -48 -28 -89q-23 -33 -53 -52q-29 -19 -64 -19q-33 0 -65 19q-30 19 -53 52q-21 35 -28 89zM263 217l8 21l-255 529h102l202 -413l170 413h92l-213 -511q-66 -160 -129 -217q-61 -53 -157 -53
q-40 0 -75 8v81q38 -12 72 -12q43 0 80 17q32 16 62 61q31 50 41 76z" />
    <glyph glyph-name="Ydieresis" unicode="&#xa2;" horiz-adv-x="578" 
d="M242 2l11 21l-238 528h102l184 -410l173 410h93l-233 -551q-45 -110 -78 -147t-67 -52t-94 -15h-70v77h53q39 0 66 10q29 9 47 32q18 19 51 97zM153 796h63q5 -39 28 -67q25 -28 55 -29q28 0 54 29q23 29 28 67h62q-4 -52 -27 -89q-23 -33 -53 -52q-30 -20 -64 -20
t-65 20q-30 19 -53 52q-20 33 -28 89z" />
    <glyph glyph-name="Ydieresis" unicode="&#x178;" horiz-adv-x="578" 
d="M242 2l11 21l-238 528h102l184 -410l173 410h93l-233 -551q-45 -110 -78 -147t-67 -52t-94 -15h-70v77h53q39 0 66 10q29 9 47 32q18 19 51 97zM153 796h63q5 -39 28 -67q25 -28 55 -29q28 0 54 29q23 29 28 67h62q-4 -52 -27 -89q-23 -33 -53 -52q-30 -20 -64 -20
t-65 20q-30 19 -53 52q-20 33 -28 89z" />
    <glyph glyph-name="lozenge" unicode="&#xa3;" horiz-adv-x="497" 
d="M162 -132q-28 -30 -74 -52v60q22 12 36 34q11 17 19 42q4 14 6 48h-61v130h130v-81q0 -71 -14 -111q-13 -37 -42 -70zM353 -132q-26 -30 -74 -52v60q22 12 36 34q14 20 19 42q6 21 6 48h-61v130h130v-81q0 -75 -14 -111q-14 -39 -42 -70z" />
    <glyph glyph-name="caron" unicode="&#xa4;" 
d="M273 133q-28 7 -85 42l-92 -91l-54 54l91 91q-33 52 -41 85q-8 34 -8 65q0 29 8 63t41 86l-91 91l54 55l92 -92q46 30 83 41q34 8 65 8q39 0 66 -8q34 -8 84 -41l92 92l53 -55l-91 -91q34 -51 42 -86q7 -28 7 -63q0 -36 -7 -65q-8 -33 -42 -85l91 -91l-53 -54l-92 91
q-56 -35 -85 -42q-28 -7 -65 -7q-34 0 -63 7zM212 255q51 -52 124 -52t126 52q51 51 51 124q0 46 -24 88q-23 41 -65 64q-40 24 -88 24q-45 0 -87 -24q-41 -23 -65 -64q-21 -40 -23 -88q0 -71 51 -124z" />
    <glyph glyph-name="section" unicode="&#xa7;" 
d="M580 277q0 -74 -83 -139q54 -37 69 -68q14 -33 14 -67q0 -54 -27 -93q-28 -40 -80 -68q-49 -24 -139 -26q-161 0 -215 60q-50 59 -52 130v5h100v-5q0 -37 18 -62q17 -25 59 -38q35 -11 90 -13q78 0 115 33q36 31 38 71q0 14 -7 31q-7 13 -23 28q-33 25 -125 69l-106 52
q-78 37 -103 76q-25 38 -25 79q0 38 21 75q23 40 55 62q-39 29 -58 62q-18 36 -18 75q0 80 66 130q65 52 185 52q118 0 166 -44q49 -44 50 -104v-5h-100v5q0 36 -37 54q-36 18 -93 18q-62 0 -102 -25t-40 -69q0 -34 30 -61q26 -26 95 -59l91 -42q97 -46 132 -84
q39 -39 39 -95zM296 244l143 -69q45 36 45 78q0 32 -21 56q-20 25 -95 63l-131 62q-30 -26 -38 -49q-6 -19 -6 -39q0 -26 17 -48q15 -19 86 -54z" />
    <glyph glyph-name="guilsinglright" unicode="&#xa8;" horiz-adv-x="597" 
d="M241 852h-92v91h92v-91zM456 852h-92v91h92v-91zM531 0h-458v766h432v-85h-333v-241h291v-76h-291v-280h359v-84z" />
    <glyph glyph-name="guilsinglright" unicode="&#x203a;" horiz-adv-x="597" 
d="M241 852h-92v91h92v-91zM456 852h-92v91h92v-91zM531 0h-458v766h432v-85h-333v-241h291v-76h-291v-280h359v-84z" />
    <glyph glyph-name="copyright" unicode="&#xa9;" horiz-adv-x="888" 
d="M643 29q-91 -50 -200 -52q-107 0 -199 52q-95 54 -149 148q-57 96 -57 205q0 105 54 204q55 94 149 148q96 54 202 54q111 0 203 -54q95 -54 150 -148q53 -97 53 -204q0 -111 -55 -205q-53 -92 -151 -148zM274 83q78 -43 169 -45q92 0 170 45q79 43 127 124q48 79 48 175
q0 93 -46 173q-46 82 -127 126q-77 46 -172 46q-91 0 -171 -46q-78 -43 -127 -126q-45 -79 -45 -173t47 -175q50 -83 127 -124zM484 188q56 0 124 28v-69q-56 -23 -138 -25q-76 0 -130 32q-53 30 -83 95q-31 63 -31 139q0 101 59 178q58 76 179 76q77 0 144 -24v-69
q-63 31 -131 33q-72 0 -119 -48q-48 -45 -48 -148q0 -99 48 -150q48 -48 126 -48z" />
    <glyph glyph-name="guillemotleft" unicode="&#xab;" horiz-adv-x="539" 
d="M501 490l-150 -216l150 -212h-84l-161 175v77l165 176h80zM287 490l-151 -216l151 -212h-84l-161 175v77l165 176h80z" />
    <glyph glyph-name="logicalnot" unicode="&#xac;" 
d="M62 314h550v-237h-77v160h-473v77z" />
    <glyph glyph-name="registered" unicode="&#xae;" horiz-adv-x="888" 
d="M643 29q-91 -50 -200 -52q-107 0 -199 52q-95 54 -149 148q-57 96 -57 205q0 105 54 204q55 94 149 148q96 54 202 54q111 0 203 -54q95 -54 150 -148q53 -97 53 -204q0 -111 -55 -205q-53 -92 -151 -148zM274 83q78 -43 169 -45q92 0 170 45q79 43 127 124q48 79 48 175
q0 93 -46 173q-46 82 -127 126q-77 46 -172 46q-91 0 -171 -46q-78 -43 -127 -126q-45 -79 -45 -173t47 -175q50 -83 127 -124zM368 340v-210h-79v501h158q60 0 88 -17q31 -16 48 -48t17 -69q0 -43 -24 -82q-22 -37 -74 -59q24 -17 56 -72l82 -154h-89l-68 131l-17 31
q-28 48 -40 48h-58zM368 571v-170h54q55 0 76 28q20 29 21 64q0 21 -9 37q-7 17 -25 30q-15 9 -58 11h-59z" />
    <glyph glyph-name="integral" unicode="&#xaf;" horiz-adv-x="303" 
d="M202 766v-766h-99v766h99zM90 852h-92v91h92v-91zM304 852h-92v91h92v-91z" />
    <glyph glyph-name="degree" unicode="&#xb0;" horiz-adv-x="344" 
d="M268 560q-38 -38 -95 -40q-56 0 -95 40t-40 94q0 54 40 94t95 40t94 -40q39 -37 39 -94q0 -55 -38 -94zM109 593q25 -26 64 -26q38 0 61 26q25 24 27 61q0 36 -27 62q-24 24 -61 26q-38 0 -63 -26q-24 -24 -26 -62q0 -33 25 -61z" />
    <glyph glyph-name="plusminus" unicode="&#xb1;" 
d="M375 467h237v-77h-237v-237h-77v237h-236v77h236v237h77v-237zM62 77h550v-77h-550v77z" />
    <glyph glyph-name="germandbls" unicode="&#xb2;" horiz-adv-x="597" 
d="M165 0h-92v567q0 88 24 133q24 47 69 72q42 24 107 24q76 0 131 -33t56 -98q0 -39 -20 -69q-16 -27 -48 -63l-22 -23q-41 -41 -41 -64q0 -30 62 -76l21 -15l27 -22l39 -29q89 -74 89 -157q0 -66 -48 -116q-46 -46 -135 -46q-70 0 -128 20v86q42 -19 82 -25q52 -4 53 -4
q30 0 54 18q26 19 26 55q0 29 -18 56q-18 26 -84 80l-29 21q-14 12 -21 16q-55 42 -72 69q-14 25 -14 50q0 43 44 90q7 9 14 16l26 32q47 55 47 89q0 26 -28 45q-26 20 -65 20q-46 0 -76 -27t-30 -116v-576z" />
    <glyph glyph-name="paragraph" unicode="&#xb6;" 
d="M570 689v-873h-76v873h-107v-873h-77v517q-114 0 -188 62q-73 62 -73 149q0 55 33 113q29 54 91 81q54 26 179 28h299v-77h-81z" />
    <glyph glyph-name="bullet" unicode="&#xb7;" 
d="M154 275q-28 47 -28 104q0 54 28 104q25 46 76 78q49 28 106 28q56 0 105 -28t78 -77q28 -51 28 -105q0 -55 -28 -105t-77 -78q-49 -27 -106 -27t-106 28t-76 78z" />
    <glyph glyph-name="bullet" unicode="&#x2022;" 
d="M154 275q-28 47 -28 104q0 54 28 104q25 46 76 78q49 28 106 28q56 0 105 -28t78 -77q28 -51 28 -105q0 -55 -28 -105t-77 -78q-49 -27 -106 -27t-106 28t-76 78z" />
    <glyph glyph-name="fi" unicode="&#xb8;" horiz-adv-x="582" 
d="M432 136v5h92v-5q0 -37 -29 -73q-28 -38 -77 -59q-49 -19 -110 -19q-125 0 -194 81q-69 83 -69 206q0 124 73 211q74 83 186 84q62 0 114 -28q50 -26 80 -84q29 -57 29 -160v-31h-391q0 -86 48 -146q47 -56 132 -56q62 0 88 22q28 24 28 52zM200 448q-41 -38 -58 -115
h298v10q0 40 -19 75q-19 39 -50 54q-34 18 -76 18q-51 0 -95 -42zM237 635h-92v92h92v-92zM452 635h-92v92h92v-92z" />
    <glyph glyph-name="guilsinglleft" unicode="&#xb9;" horiz-adv-x="715" 
d="M165 546v-546h-92v766h98l350 -545l32 -60l-2 60v545h91v-766h-97l-351 546l-31 62z" />
    <glyph glyph-name="guilsinglleft" unicode="&#x2039;" horiz-adv-x="715" 
d="M165 546v-546h-92v766h98l350 -545l32 -60l-2 60v545h91v-766h-97l-351 546l-31 62z" />
    <glyph glyph-name="guillemotright" unicode="&#xbb;" horiz-adv-x="539" 
d="M38 62l152 215l-152 213h84l161 -176v-77l-165 -175h-80zM253 62l150 215l-150 213h83l162 -176v-77l-166 -175h-79z" />
    <glyph glyph-name="divide" unicode="&#xbc;" 
d="M62 314h550v-77h-550v77zM293 482h92v-92h-92v92zM293 157h92v-88h-92v88z" />
    <glyph glyph-name="dieresis" unicode="&#xbd;" 
d="M389 276l223 -222l-56 -54l-220 222l-224 -222l-50 57l219 219l-219 223l53 52l221 -221l217 221l59 -49z" />
    <glyph glyph-name="ellipsis" unicode="&#xbe;" horiz-adv-x="1040" 
d="M239 130v-130h-130v130h130zM586 130v-130h-130v130h130zM931 130v-130h-130v130h130z" />
    <glyph glyph-name="ellipsis" unicode="&#x2026;" horiz-adv-x="1040" 
d="M239 130v-130h-130v130h130zM586 130v-130h-130v130h130zM931 130v-130h-130v130h130z" />
    <glyph glyph-name="ordfeminine" unicode="&#xbf;" horiz-adv-x="306" 
d="M106 -3v550h92v-550h-92zM92 638h-92v92h92v-92zM306 638h-92v92h92v-92z" />
    <glyph glyph-name="Adieresis" unicode="&#xc0;" horiz-adv-x="734" 
d="M194 210l-87 -210h-92l314 766h100l290 -766h-108l-79 210h-338zM369 642l-145 -355h279z" />
    <glyph glyph-name="Adieresis" unicode="&#x410;" horiz-adv-x="734" 
d="M194 210l-87 -210h-92l314 766h100l290 -766h-108l-79 210h-338zM369 642l-145 -355h279z" />
    <glyph glyph-name="Aring" unicode="&#xc1;" horiz-adv-x="642" 
d="M172 392v-315h141q99 0 135 36q39 38 39 111q0 52 -24 89q-26 35 -71 57t-146 22h-74zM73 0v766h459v-77h-360v-220h96q105 0 164 -25q77 -31 115 -80q21 -26 32 -62.5t11 -70.5q0 -32 -8 -68t-21 -57q-28 -48 -80 -78q-54 -28 -179 -28h-229z" />
    <glyph glyph-name="Aring" unicode="&#x411;" horiz-adv-x="642" 
d="M172 392v-315h141q99 0 135 36q39 38 39 111q0 52 -24 89q-26 35 -71 57t-146 22h-74zM73 0v766h459v-77h-360v-220h96q105 0 164 -25q77 -31 115 -80q21 -26 32 -62.5t11 -70.5q0 -32 -8 -68t-21 -57q-28 -48 -80 -78q-54 -28 -179 -28h-229z" />
    <glyph glyph-name="Ccedilla" unicode="&#xc2;" horiz-adv-x="642" 
d="M527 495q-30 -52 -110 -93q89 -21 130 -75q42 -51 42 -118q0 -56 -28 -103q-28 -48 -80 -78q-54 -28 -179 -28h-229v766h203q138 0 187 -21q46 -19 71 -58q24 -41 25 -87q0 -52 -32 -105zM172 689v-257h96q74 0 111 21q34 17 58 55q23 38 23 77q0 40 -36 73
q-32 29 -123 31h-129zM172 356v-279h141q99 0 135 36q38 37 38 89q0 40 -23 75q-25 34 -71 56q-48 23 -146 23h-74z" />
    <glyph glyph-name="Ccedilla" unicode="&#x412;" horiz-adv-x="642" 
d="M527 495q-30 -52 -110 -93q89 -21 130 -75q42 -51 42 -118q0 -56 -28 -103q-28 -48 -80 -78q-54 -28 -179 -28h-229v766h203q138 0 187 -21q46 -19 71 -58q24 -41 25 -87q0 -52 -32 -105zM172 689v-257h96q74 0 111 21q34 17 58 55q23 38 23 77q0 40 -36 73
q-32 29 -123 31h-129zM172 356v-279h141q99 0 135 36q38 37 38 89q0 40 -23 75q-25 34 -71 56q-48 23 -146 23h-74z" />
    <glyph glyph-name="Eacute" unicode="&#xc3;" horiz-adv-x="570" 
d="M532 689h-359v-689h-99v766h458v-77z" />
    <glyph glyph-name="Eacute" unicode="&#x413;" horiz-adv-x="570" 
d="M532 689h-359v-689h-99v766h458v-77z" />
    <glyph glyph-name="Ntilde" unicode="&#xc4;" horiz-adv-x="792" 
d="M658 0h-528v-125h-99v197h95l214 692h101l221 -692h95v-197h-99v125zM551 75l-144 457l-21 79l-19 -78l-144 -458h328z" />
    <glyph glyph-name="Ntilde" unicode="&#x414;" horiz-adv-x="792" 
d="M658 0h-528v-125h-99v197h95l214 692h101l221 -692h95v-197h-99v125zM551 75l-144 457l-21 79l-19 -78l-144 -458h328z" />
    <glyph glyph-name="Odieresis" unicode="&#xc5;" horiz-adv-x="582" 
d="M531 0h-458v766h432v-85h-333v-241h291v-76h-291v-280h359v-84z" />
    <glyph glyph-name="Odieresis" unicode="&#x415;" horiz-adv-x="582" 
d="M531 0h-458v766h432v-85h-333v-241h291v-76h-291v-280h359v-84z" />
    <glyph glyph-name="Udieresis" unicode="&#xc6;" horiz-adv-x="982" 
d="M441 387l-304 -389h-125l313 402l-274 368h106l284 -380v380h99v-380l285 380h106l-274 -368l313 -402h-126l-304 390v-390h-99v389z" />
    <glyph glyph-name="Udieresis" unicode="&#x416;" horiz-adv-x="982" 
d="M441 387l-304 -389h-125l313 402l-274 368h106l284 -380v380h99v-380l285 380h106l-274 -368l313 -402h-126l-304 390v-390h-99v389z" />
    <glyph glyph-name="aacute" unicode="&#xc7;" 
d="M414 334q-22 21 -53.5 37.5t-89.5 42.5q26 15 41 25.5t27 20.5t21 17q43 35 58 56q22 35 22 72q0 50 -37 78q-35 27 -96 29q-33 0 -65 -9q-29 -9 -46 -30q-14 -20 -16 -45v-5h-88v5q0 61 51 110q50 50 169 50q113 0 168 -48q56 -47 56 -123q0 -38 -16 -78q-5 -10 -48 -63
q-34 -40 -74 -55q80 -22 122 -69q46 -53 47 -132q0 -89 -66 -167q-63 -76 -196 -76q-114 0 -168 48q-52 50 -53 111v5h92v-5q0 -41 38 -61q39 -21 100 -21q47 0 84 17q34 18 55 57q18 41 18 86q0 72 -57 120z" />
    <glyph glyph-name="aacute" unicode="&#x417;" 
d="M414 334q-22 21 -53.5 37.5t-89.5 42.5q26 15 41 25.5t27 20.5t21 17q43 35 58 56q22 35 22 72q0 50 -37 78q-35 27 -96 29q-33 0 -65 -9q-29 -9 -46 -30q-14 -20 -16 -45v-5h-88v5q0 61 51 110q50 50 169 50q113 0 168 -48q56 -47 56 -123q0 -38 -16 -78q-5 -10 -48 -63
q-34 -40 -74 -55q80 -22 122 -69q46 -53 47 -132q0 -89 -66 -167q-63 -76 -196 -76q-114 0 -168 48q-52 50 -53 111v5h92v-5q0 -41 38 -61q39 -21 100 -21q47 0 84 17q34 18 55 57q18 41 18 86q0 72 -57 120z" />
    <glyph glyph-name="agrave" unicode="&#xc8;" horiz-adv-x="715" 
d="M551 0v546l2 62l-32 -62l-351 -546h-97v766h92v-545l-2 -60l31 60l350 545h98v-766h-91z" />
    <glyph glyph-name="agrave" unicode="&#x418;" horiz-adv-x="715" 
d="M551 0v546l2 62l-32 -62l-351 -546h-97v766h92v-545l-2 -60l31 60l350 545h98v-766h-91z" />
    <glyph glyph-name="acircumflex" unicode="&#xc9;" horiz-adv-x="715" 
d="M551 0v546l2 62l-32 -62l-351 -546h-97v766h92v-545l-2 -60l31 60l350 545h98v-766h-91zM209 927h64q5 -38 28 -66q23 -29 55 -30q29 0 53 30q23 29 28 66h63q-4 -50 -27 -89q-22 -32 -54 -52q-29 -19 -63 -19t-65 19q-29 18 -54 52q-21 35 -28 89z" />
    <glyph glyph-name="acircumflex" unicode="&#x419;" horiz-adv-x="715" 
d="M551 0v546l2 62l-32 -62l-351 -546h-97v766h92v-545l-2 -60l31 60l350 545h98v-766h-91zM209 927h64q5 -38 28 -66q23 -29 55 -30q29 0 53 30q23 29 28 66h63q-4 -50 -27 -89q-22 -32 -54 -52q-29 -19 -63 -19t-65 19q-29 18 -54 52q-21 35 -28 89z" />
    <glyph glyph-name="adieresis" unicode="&#xca;" horiz-adv-x="670" 
d="M172 400v-400h-99v766h99v-366l320 366h113l-316 -360l365 -406h-125z" />
    <glyph glyph-name="adieresis" unicode="&#x41a;" horiz-adv-x="670" 
d="M172 400v-400h-99v766h99v-366l320 366h113l-316 -360l365 -406h-125z" />
    <glyph glyph-name="atilde" unicode="&#xcb;" horiz-adv-x="661" 
d="M306 533l-167 -535h-95l236 766h101l237 -766h-105l-167 534l-21 79z" />
    <glyph glyph-name="atilde" unicode="&#x41b;" horiz-adv-x="661" 
d="M306 533l-167 -535h-95l236 766h101l237 -766h-105l-167 534l-21 79z" />
    <glyph glyph-name="aring" unicode="&#xcc;" horiz-adv-x="796" 
d="M157 458v-458h-84v766h97l238 -548l218 548h97v-766h-89v457q1 34 1.5 68t1.5 68h-3l-48 -137l-137 -341h-100l-147 343l-45 124h-2q1 -31 1.5 -62t0.5 -62z" />
    <glyph glyph-name="aring" unicode="&#x41c;" horiz-adv-x="796" 
d="M157 458v-458h-84v766h97l238 -548l218 548h97v-766h-89v457q1 34 1.5 68t1.5 68h-3l-48 -137l-137 -341h-100l-147 343l-45 124h-2q1 -31 1.5 -62t0.5 -62z" />
    <glyph glyph-name="ccedilla" unicode="&#xcd;" horiz-adv-x="696" 
d="M172 348v-348h-99v766h99v-342h352v342h99v-766h-99v348h-352z" />
    <glyph glyph-name="ccedilla" unicode="&#x41d;" horiz-adv-x="696" 
d="M172 348v-348h-99v766h99v-342h352v342h99v-766h-99v348h-352z" />
    <glyph glyph-name="eacute" unicode="&#xce;" horiz-adv-x="742" 
d="M605 83q-88 -104 -234 -106q-144 0 -235 106q-90 106 -91 300q0 192 91 300q92 105 235 105q144 0 234 -105q91 -106 91 -300q0 -99 -22.5 -173.5t-68.5 -126.5zM208 143q58 -87 163 -89q104 0 163 89q57 90 59 240q0 150 -59 238q-58 91 -163 91t-163 -91
q-58 -88 -60 -238q0 -146 60 -240z" />
    <glyph glyph-name="eacute" unicode="&#x41e;" horiz-adv-x="742" 
d="M605 83q-88 -104 -234 -106q-144 0 -235 106q-90 106 -91 300q0 192 91 300q92 105 235 105q144 0 234 -105q91 -106 91 -300q0 -99 -22.5 -173.5t-68.5 -126.5zM208 143q58 -87 163 -89q104 0 163 89q57 90 59 240q0 150 -59 238q-58 91 -163 91t-163 -91
q-58 -88 -60 -238q0 -146 60 -240z" />
    <glyph glyph-name="egrave" unicode="&#xcf;" horiz-adv-x="696" 
d="M172 691v-691h-99v766h550v-766h-99v691h-352z" />
    <glyph glyph-name="egrave" unicode="&#x41f;" horiz-adv-x="696" 
d="M172 691v-691h-99v766h550v-766h-99v691h-352z" />
    <glyph glyph-name="ecircumflex" unicode="&#xd0;" horiz-adv-x="589" 
d="M172 302v-302h-99v766h213q121 0 172 -26q50 -24 74 -72q26 -50 27 -112q0 -108 -74 -180q-72 -72 -218 -74h-95zM172 689v-310h67q132 0 174 50q41 50 43 123q0 58 -35 99q-32 36 -133 38h-116z" />
    <glyph glyph-name="ecircumflex" unicode="&#x420;" horiz-adv-x="589" 
d="M172 302v-302h-99v766h213q121 0 172 -26q50 -24 74 -72q26 -50 27 -112q0 -108 -74 -180q-72 -72 -218 -74h-95zM172 689v-310h67q132 0 174 50q41 50 43 123q0 58 -35 99q-32 36 -133 38h-116z" />
    <glyph glyph-name="edieresis" unicode="&#xd1;" horiz-adv-x="658" 
d="M527 160v5h93v-5q0 -46 -31 -92q-30 -45 -85 -69q-53 -22 -126 -22q-147 0 -240 102q-92 101 -93 304q0 199 93 304q92 102 240 102q69 0 126 -22q53 -21 85 -70q29 -46 31 -91v-5h-93v5q0 29 -17 54q-17 26 -50 38q-34 14 -79 14q-116 0 -175 -93q-57 -93 -58 -236
q0 -142 59 -238q57 -91 174 -91q81 0 113 32q33 33 33 74z" />
    <glyph glyph-name="edieresis" unicode="&#x421;" horiz-adv-x="658" 
d="M527 160v5h93v-5q0 -46 -31 -92q-30 -45 -85 -69q-53 -22 -126 -22q-147 0 -240 102q-92 101 -93 304q0 199 93 304q92 102 240 102q69 0 126 -22q53 -21 85 -70q29 -46 31 -91v-5h-93v5q0 29 -17 54q-17 26 -50 38q-34 14 -79 14q-116 0 -175 -93q-57 -93 -58 -236
q0 -142 59 -238q57 -91 174 -91q81 0 113 32q33 33 33 74z" />
    <glyph glyph-name="iacute" unicode="&#xd2;" horiz-adv-x="646" 
d="M375 0h-99v689h-261v77h616v-77h-256v-689z" />
    <glyph glyph-name="iacute" unicode="&#x422;" horiz-adv-x="646" 
d="M375 0h-99v689h-261v77h616v-77h-256v-689z" />
    <glyph glyph-name="igrave" unicode="&#xd3;" horiz-adv-x="588" 
d="M263 217l8 21l-255 529h102l202 -413l170 413h92l-213 -511q-66 -160 -129 -217q-61 -53 -157 -53q-40 0 -75 8v81q38 -12 72 -12q43 0 80 17q32 16 62 61q31 50 41 76z" />
    <glyph glyph-name="igrave" unicode="&#x423;" horiz-adv-x="588" 
d="M263 217l8 21l-255 529h102l202 -413l170 413h92l-213 -511q-66 -160 -129 -217q-61 -53 -157 -53q-40 0 -75 8v81q38 -12 72 -12q43 0 80 17q32 16 62 61q31 50 41 76z" />
    <glyph glyph-name="icircumflex" unicode="&#xd4;" horiz-adv-x="939" 
d="M419 149h-40q-118 0 -186 35q-69 32 -108 97q-39 66 -39 138q1 62 30 112q28 51 82 78q55 26 171 26h90v131h101v-131h90q115 0 172 -26q53 -27 82 -78q27 -48 29 -112q0 -74 -38 -138q-41 -65 -109 -97q-68 -35 -185 -35h-41v-149h-101v149zM419 226v333h-59
q-126 0 -170 -39t-44 -105q0 -50 25 -97q23 -42 68 -69q45 -23 138 -23h42zM520 559v-333h43q94 0 137 23q47 27 69 69q24 45 24 97q0 67 -44 105q-44 39 -169 39h-60z" />
    <glyph glyph-name="icircumflex" unicode="&#x424;" horiz-adv-x="939" 
d="M419 149h-40q-118 0 -186 35q-69 32 -108 97q-39 66 -39 138q1 62 30 112q28 51 82 78q55 26 171 26h90v131h101v-131h90q115 0 172 -26q53 -27 82 -78q27 -48 29 -112q0 -74 -38 -138q-41 -65 -109 -97q-68 -35 -185 -35h-41v-149h-101v149zM419 226v333h-59
q-126 0 -170 -39t-44 -105q0 -50 25 -97q23 -42 68 -69q45 -23 138 -23h42zM520 559v-333h43q94 0 137 23q47 27 69 69q24 45 24 97q0 67 -44 105q-44 39 -169 39h-60z" />
    <glyph glyph-name="idieresis" unicode="&#xd5;" horiz-adv-x="616" 
d="M309 308l-193 -308h-101l246 389l-227 377h109l173 -289l185 289h99l-235 -369l236 -397h-107z" />
    <glyph glyph-name="idieresis" unicode="&#x425;" horiz-adv-x="616" 
d="M309 308l-193 -308h-101l246 389l-227 377h109l173 -289l185 289h99l-235 -369l236 -397h-107z" />
    <glyph glyph-name="ntilde" unicode="&#xd6;" horiz-adv-x="791" 
d="M640 0h-566v766h99v-691h352v691h99v-691h115v-197h-99v122z" />
    <glyph glyph-name="ntilde" unicode="&#x426;" horiz-adv-x="791" 
d="M640 0h-566v766h99v-691h352v691h99v-691h115v-197h-99v122z" />
    <glyph glyph-name="oacute" unicode="&#xd7;" horiz-adv-x="665" 
d="M511 322q-17 -42 -68.5 -69t-102.5 -29q-100 0 -158 22q-54 21 -99 90q-32 55 -32 180v251h98v-237q0 -106 22 -145q21 -37 65 -56q48 -19 99 -19q50 0 93 19q27 14 54 62t27 117v259h103l-1 -768h-100v323z" />
    <glyph glyph-name="oacute" unicode="&#x427;" horiz-adv-x="665" 
d="M511 322q-17 -42 -68.5 -69t-102.5 -29q-100 0 -158 22q-54 21 -99 90q-32 55 -32 180v251h98v-237q0 -106 22 -145q21 -37 65 -56q48 -19 99 -19q50 0 93 19q27 14 54 62t27 117v259h103l-1 -768h-100v323z" />
    <glyph glyph-name="ograve" unicode="&#xd8;" horiz-adv-x="939" 
d="M867 0h-800v766h99v-691h251v691h99v-691h252v691h99v-766z" />
    <glyph glyph-name="ograve" unicode="&#x428;" horiz-adv-x="939" 
d="M867 0h-800v766h99v-691h251v691h99v-691h252v691h99v-766z" />
    <glyph glyph-name="ocircumflex" unicode="&#xd9;" horiz-adv-x="1014" 
d="M883 0h-816v766h99v-691h251v691h99v-691h252v691h99v-691h115v-197h-99v122z" />
    <glyph glyph-name="ocircumflex" unicode="&#x429;" horiz-adv-x="1014" 
d="M883 0h-816v766h99v-691h251v691h99v-691h252v691h99v-691h115v-197h-99v122z" />
    <glyph glyph-name="odieresis" unicode="&#xda;" horiz-adv-x="764" 
d="M15 766h285v-297h96q105 0 165 -25q76 -31 115 -80q20 -24 31 -61.5t11 -71.5q0 -32 -8 -68t-21 -57q-26 -46 -80 -78q-53 -28 -179 -28h-229v689h-186v77zM300 392v-315h141q100 0 136 36q18 18 28 50t10 61q0 52 -24 89q-24 35 -71 57q-45 22 -145 22h-75z" />
    <glyph glyph-name="odieresis" unicode="&#x42a;" horiz-adv-x="764" 
d="M15 766h285v-297h96q105 0 165 -25q76 -31 115 -80q20 -24 31 -61.5t11 -71.5q0 -32 -8 -68t-21 -57q-26 -46 -80 -78q-53 -28 -179 -28h-229v689h-186v77zM300 392v-315h141q100 0 136 36q18 18 28 50t10 61q0 52 -24 89q-24 35 -71 57q-45 22 -145 22h-75z" />
    <glyph glyph-name="otilde" unicode="&#xdb;" horiz-adv-x="867" 
d="M172 392v-315h141q99 0 135 36q39 38 39 111q0 52 -24 89q-26 35 -71 57t-146 22h-74zM73 0v766h99v-297h96q105 0 164 -25q77 -31 115 -80q21 -26 32 -62.5t11 -70.5q0 -32 -8 -68t-21 -57q-28 -48 -80 -78q-54 -28 -179 -28h-229zM794 765v-766h-99v766h99z" />
    <glyph glyph-name="otilde" unicode="&#x42b;" horiz-adv-x="867" 
d="M172 392v-315h141q99 0 135 36q39 38 39 111q0 52 -24 89q-26 35 -71 57t-146 22h-74zM73 0v766h99v-297h96q105 0 164 -25q77 -31 115 -80q21 -26 32 -62.5t11 -70.5q0 -32 -8 -68t-21 -57q-28 -48 -80 -78q-54 -28 -179 -28h-229zM794 765v-766h-99v766h99z" />
    <glyph glyph-name="uacute" unicode="&#xdc;" horiz-adv-x="642" 
d="M172 392v-315h141q99 0 135 36q39 38 39 111q0 52 -24 89q-26 35 -71 57t-146 22h-74zM73 0v766h99v-297h96q105 0 164 -25q77 -31 115 -80q21 -26 32 -62.5t11 -70.5q0 -32 -8 -68t-21 -57q-28 -48 -80 -78q-54 -28 -179 -28h-229z" />
    <glyph glyph-name="uacute" unicode="&#x42c;" horiz-adv-x="642" 
d="M172 392v-315h141q99 0 135 36q39 38 39 111q0 52 -24 89q-26 35 -71 57t-146 22h-74zM73 0v766h99v-297h96q105 0 164 -25q77 -31 115 -80q21 -26 32 -62.5t11 -70.5q0 -32 -8 -68t-21 -57q-28 -48 -80 -78q-54 -28 -179 -28h-229z" />
    <glyph glyph-name="ugrave" unicode="&#xdd;" horiz-adv-x="658" 
d="M516 364h-314v76h311q-9 104 -54 179q-60 93 -175 93q-46 0 -79 -14q-33 -12 -50 -38q-18 -25 -18 -54v-5h-93v5q0 41 32 91q33 50 85 70q57 22 126 22q149 0 239 -102q93 -103 93 -304q0 -203 -93 -304q-92 -102 -239 -102q-73 0 -126 22q-55 23 -85 69q-32 47 -32 92v5
h93v-5q0 -41 34 -74q32 -32 113 -32q116 0 174 91q58 96 58 219z" />
    <glyph glyph-name="ugrave" unicode="&#x42d;" horiz-adv-x="658" 
d="M516 364h-314v76h311q-9 104 -54 179q-60 93 -175 93q-46 0 -79 -14q-33 -12 -50 -38q-18 -25 -18 -54v-5h-93v5q0 41 32 91q33 50 85 70q57 22 126 22q149 0 239 -102q93 -103 93 -304q0 -203 -93 -304q-92 -102 -239 -102q-73 0 -126 22q-55 23 -85 69q-32 47 -32 92v5
h93v-5q0 -41 34 -74q32 -32 113 -32q116 0 174 91q58 96 58 219z" />
    <glyph glyph-name="ucircumflex" unicode="&#xde;" horiz-adv-x="992" 
d="M172 766v-342h107q9 164 90 259q90 105 234 105q145 0 234 -105q91 -106 91 -300q0 -99 -22.5 -173.5t-68.5 -126.5q-88 -106 -234 -106q-144 0 -234 106q-83 95 -90 265h-107v-348h-99v766h99zM440 143q60 -89 163 -89q104 0 164 89q58 93 58 240q0 149 -58 238
q-60 91 -164 91q-103 0 -163 -91q-59 -89 -59 -238q0 -148 59 -240z" />
    <glyph glyph-name="ucircumflex" unicode="&#x42e;" horiz-adv-x="992" 
d="M172 766v-342h107q9 164 90 259q90 105 234 105q145 0 234 -105q91 -106 91 -300q0 -99 -22.5 -173.5t-68.5 -126.5q-88 -106 -234 -106q-144 0 -234 106q-83 95 -90 265h-107v-348h-99v766h99zM440 143q60 -89 163 -89q104 0 164 89q58 93 58 240q0 149 -58 238
q-60 91 -164 91q-103 0 -163 -91q-59 -89 -59 -238q0 -148 59 -240z" />
    <glyph glyph-name="udieresis" unicode="&#xdf;" horiz-adv-x="612" 
d="M465 0v329h-101q-62 -54 -100 -128l-106 -201h-115l123 226q8 16 30 52q22 32 30 40q13 13 38 26q-63 25 -97 59q-32 34 -49 75q-17 40 -17 87q0 51 25 103q25 46 70 72q42 26 131 26h237v-766h-99zM465 405v284h-105q-68 0 -97 -19q-29 -20 -44 -49q-15 -28 -15 -63
q1 -43 19 -78q20 -37 51 -56t93 -19h98z" />
    <glyph glyph-name="udieresis" unicode="&#x42f;" horiz-adv-x="612" 
d="M465 0v329h-101q-62 -54 -100 -128l-106 -201h-115l123 226q8 16 30 52q22 32 30 40q13 13 38 26q-63 25 -97 59q-32 34 -49 75q-17 40 -17 87q0 51 25 103q25 46 70 72q42 26 131 26h237v-766h-99zM465 405v284h-105q-68 0 -97 -19q-29 -20 -44 -49q-15 -28 -15 -63
q1 -43 19 -78q20 -37 51 -56t93 -19h98z" />
    <glyph glyph-name="daggerdbl" unicode="&#xe0;" horiz-adv-x="559" 
d="M509 0h-97q-12 40 -14 77q-59 -59 -103 -77q-42 -15 -82 -15q-65 0 -112 39q-46 41 -47 111q0 81 66 124q65 42 228 75l50 9v62q0 51 -34 72q-35 20 -82 20q-58 0 -89 -25q-30 -23 -32 -59v-8h-99v8q0 39 30 75q29 38 82 59q52 20 112 20q62 0 109 -20q51 -19 72 -50
q21 -29 23 -119v-214q0 -48 1 -74q2 -39 18 -90zM398 223v55l-27 -6q-142 -37 -179 -65q-38 -30 -39 -74q0 -20 12 -40q9 -16 34 -29q23 -10 44 -10q38 0 76 22q38 24 59 60q20 38 20 87z" />
    <glyph glyph-name="daggerdbl" unicode="&#x2021;" horiz-adv-x="559" 
d="M509 0h-97q-12 40 -14 77q-59 -59 -103 -77q-42 -15 -82 -15q-65 0 -112 39q-46 41 -47 111q0 81 66 124q65 42 228 75l50 9v62q0 51 -34 72q-35 20 -82 20q-58 0 -89 -25q-30 -23 -32 -59v-8h-99v8q0 39 30 75q29 38 82 59q52 20 112 20q62 0 109 -20q51 -19 72 -50
q21 -29 23 -119v-214q0 -48 1 -74q2 -39 18 -90zM398 223v55l-27 -6q-142 -37 -179 -65q-38 -30 -39 -74q0 -20 12 -40q9 -16 34 -29q23 -10 44 -10q38 0 76 22q38 24 59 60q20 38 20 87z" />
    <glyph glyph-name="daggerdbl" unicode="&#x430;" horiz-adv-x="559" 
d="M509 0h-97q-12 40 -14 77q-59 -59 -103 -77q-42 -15 -82 -15q-65 0 -112 39q-46 41 -47 111q0 81 66 124q65 42 228 75l50 9v62q0 51 -34 72q-35 20 -82 20q-58 0 -89 -25q-30 -23 -32 -59v-8h-99v8q0 39 30 75q29 38 82 59q52 20 112 20q62 0 109 -20q51 -19 72 -50
q21 -29 23 -119v-214q0 -48 1 -74q2 -39 18 -90zM398 223v55l-27 -6q-142 -37 -179 -65q-38 -30 -39 -74q0 -20 12 -40q9 -16 34 -29q23 -10 44 -10q38 0 76 22q38 24 59 60q20 38 20 87z" />
    <glyph glyph-name="periodcentered" unicode="&#xe1;" horiz-adv-x="612" 
d="M45 276q1 15 5.5 116.5t10 164.5t16.5 102q11 37 43 66.5t63 41.5q28 11 68 11q22 0 65 -3l68 -7q63 -6 94 7q16 7 24 14.5t15 25.5l57 -40q-15 -48 -76 -74q-51 -22 -134 -14l-57 6q-61 6 -97 -7q-33 -12 -49 -52q-15 -33 -18 -137q41 37 77 53.5t86 16.5q107 0 184 -74
q76 -74 77 -217q0 -144 -77 -218q-76 -73 -184 -73t-184 73q-38 36 -59 95t-18 123zM187 120q43 -58 119 -58q74 0 119 58q44 57 46 156q0 96 -46 154q-43 60 -119 60q-74 0 -119 -60q-44 -56 -46 -154q0 -95 46 -156z" />
    <glyph glyph-name="periodcentered" unicode="&#x431;" horiz-adv-x="612" 
d="M45 276q1 15 5.5 116.5t10 164.5t16.5 102q11 37 43 66.5t63 41.5q28 11 68 11q22 0 65 -3l68 -7q63 -6 94 7q16 7 24 14.5t15 25.5l57 -40q-15 -48 -76 -74q-51 -22 -134 -14l-57 6q-61 6 -97 -7q-33 -12 -49 -52q-15 -33 -18 -137q41 37 77 53.5t86 16.5q107 0 184 -74
q76 -74 77 -217q0 -144 -77 -218q-76 -73 -184 -73t-184 73q-38 36 -59 95t-18 123zM187 120q43 -58 119 -58q74 0 119 58q44 57 46 156q0 96 -46 154q-43 60 -119 60q-74 0 -119 -60q-44 -56 -46 -154q0 -95 46 -156z" />
    <glyph glyph-name="quotesinglbase" unicode="&#xe2;" horiz-adv-x="535" 
d="M456 408q1 -72 -65 -109q39 -10 64 -50.5t25 -86.5q0 -163 -236 -163h-166v552h168q91 0 150 -30.5t60 -112.5zM171 471v-143h93q100 0 99 76q0 39 -29 53t-77 14h-86zM172 255v-169h83q128 0 128 83q0 86 -121 86h-90z" />
    <glyph glyph-name="quotesinglbase" unicode="&#x201a;" horiz-adv-x="535" 
d="M456 408q1 -72 -65 -109q39 -10 64 -50.5t25 -86.5q0 -163 -236 -163h-166v552h168q91 0 150 -30.5t60 -112.5zM171 471v-143h93q100 0 99 76q0 39 -29 53t-77 14h-86zM172 255v-169h83q128 0 128 83q0 86 -121 86h-90z" />
    <glyph glyph-name="quotesinglbase" unicode="&#x432;" horiz-adv-x="535" 
d="M456 408q1 -72 -65 -109q39 -10 64 -50.5t25 -86.5q0 -163 -236 -163h-166v552h168q91 0 150 -30.5t60 -112.5zM171 471v-143h93q100 0 99 76q0 39 -29 53t-77 14h-86zM172 255v-169h83q128 0 128 83q0 86 -121 86h-90z" />
    <glyph glyph-name="quotedblbase" unicode="&#xe3;" horiz-adv-x="479" 
d="M410 475h-238v-476h-94v552h331z" />
    <glyph glyph-name="quotedblbase" unicode="&#x201e;" horiz-adv-x="479" 
d="M410 475h-238v-476h-94v552h331z" />
    <glyph glyph-name="quotedblbase" unicode="&#x433;" horiz-adv-x="479" 
d="M410 475h-238v-476h-94v552h331z" />
    <glyph glyph-name="perthousand" unicode="&#xe4;" horiz-adv-x="724" 
d="M411 551l182 -476h99v-197h-99v122h-458v-122h-99v197h99l182 476h94zM361 435l-135 -360h267h1z" />
    <glyph glyph-name="perthousand" unicode="&#x2030;" horiz-adv-x="724" 
d="M411 551l182 -476h99v-197h-99v122h-458v-122h-99v197h99l182 476h94zM361 435l-135 -360h267h1z" />
    <glyph glyph-name="perthousand" unicode="&#x434;" horiz-adv-x="724" 
d="M411 551l182 -476h99v-197h-99v122h-458v-122h-99v197h99l182 476h94zM361 435l-135 -360h267h1z" />
    <glyph glyph-name="Acircumflex" unicode="&#xe5;" horiz-adv-x="582" 
d="M432 136v5h92v-5q0 -37 -29 -73q-28 -38 -77 -59q-49 -19 -110 -19q-125 0 -194 81q-69 83 -69 206q0 124 73 211q74 83 186 84q62 0 114 -28q50 -26 80 -84q29 -57 29 -160v-31h-391q0 -86 48 -146q47 -56 132 -56q62 0 88 22q28 24 28 52zM200 448q-41 -38 -58 -115
h298v10q0 40 -19 75q-19 39 -50 54q-34 18 -76 18q-51 0 -95 -42z" />
    <glyph glyph-name="Acircumflex" unicode="&#x435;" horiz-adv-x="582" 
d="M432 136v5h92v-5q0 -37 -29 -73q-28 -38 -77 -59q-49 -19 -110 -19q-125 0 -194 81q-69 83 -69 206q0 124 73 211q74 83 186 84q62 0 114 -28q50 -26 80 -84q29 -57 29 -160v-31h-391q0 -86 48 -146q47 -56 132 -56q62 0 88 22q28 24 28 52zM200 448q-41 -38 -58 -115
h298v10q0 40 -19 75q-19 39 -50 54q-34 18 -76 18q-51 0 -95 -42z" />
    <glyph glyph-name="Ecircumflex" unicode="&#xe6;" horiz-adv-x="830" 
d="M461 0l-96 -1v289l-245 -289h-114l248 295l-240 255h106l245 -261v263h96v-262l244 262h106l-239 -256l247 -295h-114l-244 289v-289z" />
    <glyph glyph-name="Ecircumflex" unicode="&#x436;" horiz-adv-x="830" 
d="M461 0l-96 -1v289l-245 -289h-114l248 295l-240 255h106l245 -261v263h96v-262l244 262h106l-239 -256l247 -295h-114l-244 289v-289z" />
    <glyph glyph-name="Aacute" unicode="&#xe7;" horiz-adv-x="555" 
d="M383 220q-24 26 -115 65q56 26 84 57q20 24 27 38t8 38q3 30 -31 51q-36 21 -91 21q-80 0 -171 -32v82q78 27 167 27q119 -2 170 -45q52 -42 51 -110q-1 -46 -26 -78q-24 -26 -52 -43q53 -22 69 -50q27 -42 27 -93q0 -69 -55 -118q-54 -45 -175 -45q-105 0 -217 44v97
q55 -35 117 -50t104 -14q71 2 100 22t31 55q2 54 -22 81z" />
    <glyph glyph-name="Aacute" unicode="&#x437;" horiz-adv-x="555" 
d="M383 220q-24 26 -115 65q56 26 84 57q20 24 27 38t8 38q3 30 -31 51q-36 21 -91 21q-80 0 -171 -32v82q78 27 167 27q119 -2 170 -45q52 -42 51 -110q-1 -46 -26 -78q-24 -26 -52 -43q53 -22 69 -50q27 -42 27 -93q0 -69 -55 -118q-54 -45 -175 -45q-105 0 -217 44v97
q55 -35 117 -50t104 -14q71 2 100 22t31 55q2 54 -22 81z" />
    <glyph glyph-name="Edieresis" unicode="&#xe8;" horiz-adv-x="639" 
d="M172 125l301 426h93v-553h-93v426l-301 -425h-94v553h94v-427z" />
    <glyph glyph-name="Edieresis" unicode="&#x438;" horiz-adv-x="639" 
d="M172 125l301 426h93v-553h-93v426l-301 -425h-94v553h94v-427z" />
    <glyph glyph-name="Egrave" unicode="&#xe9;" horiz-adv-x="639" 
d="M172 125l301 426h93v-553h-93v426l-301 -425h-94v553h94v-427zM180 796h63q5 -38 29 -67q23 -28 54 -29q30 0 54 29q23 29 28 67h63q-4 -53 -28 -89q-23 -33 -53 -52q-29 -20 -64 -20q-34 0 -64 20q-31 18 -54 52q-20 33 -28 89z" />
    <glyph glyph-name="Egrave" unicode="&#x439;" horiz-adv-x="639" 
d="M172 125l301 426h93v-553h-93v426l-301 -425h-94v553h94v-427zM180 796h63q5 -38 29 -67q23 -28 54 -29q30 0 54 29q23 29 28 67h63q-4 -53 -28 -89q-23 -33 -53 -52q-29 -20 -64 -20q-34 0 -64 20q-31 18 -54 52q-20 33 -28 89z" />
    <glyph glyph-name="Iacute" unicode="&#xea;" horiz-adv-x="543" 
d="M169 289v-289h-96v551h96v-262l244 262h106l-239 -256l247 -295h-114z" />
    <glyph glyph-name="Iacute" unicode="&#x43a;" horiz-adv-x="543" 
d="M169 289v-289h-96v551h96v-262l244 262h106l-239 -256l247 -295h-114z" />
    <glyph glyph-name="Icircumflex" unicode="&#xeb;" horiz-adv-x="582" 
d="M247 552h94l210 -551h-102l-158 435l-163 -435h-91z" />
    <glyph glyph-name="Icircumflex" unicode="&#x43b;" horiz-adv-x="582" 
d="M247 552h94l210 -551h-102l-158 435l-163 -435h-91z" />
    <glyph glyph-name="Idieresis" unicode="&#xec;" horiz-adv-x="673" 
d="M521 336l-147 -337h-94l-141 325v-325h-93v553h93l191 -439l193 435h91v-549h-93v337z" />
    <glyph glyph-name="Idieresis" unicode="&#x43c;" horiz-adv-x="673" 
d="M521 336l-147 -337h-94l-141 325v-325h-93v553h93l191 -439l193 435h91v-549h-93v337z" />
    <glyph glyph-name="Igrave" unicode="&#xed;" horiz-adv-x="573" 
d="M172 552v-216h231v216h93v-553h-93v262h-231v-262h-94v553h94z" />
    <glyph glyph-name="Igrave" unicode="&#x43d;" horiz-adv-x="573" 
d="M172 552v-216h231v216h93v-553h-93v262h-231v-262h-94v553h94z" />
    <glyph glyph-name="Oacute" unicode="&#xee;" horiz-adv-x="612" 
d="M490 58q-76 -73 -184 -73t-184 73q-75 72 -77 218q0 142 77 217q77 73 184 74q107 0 184 -74q76 -74 77 -217q0 -144 -77 -218zM187 120q43 -58 119 -58q74 0 119 58q44 57 46 156q0 96 -46 154q-43 60 -119 60q-74 0 -119 -60q-44 -56 -46 -154q0 -95 46 -156z" />
    <glyph glyph-name="Oacute" unicode="&#x43e;" horiz-adv-x="612" 
d="M490 58q-76 -73 -184 -73t-184 73q-75 72 -77 218q0 142 77 217q77 73 184 74q107 0 184 -74q76 -74 77 -217q0 -144 -77 -218zM187 120q43 -58 119 -58q74 0 119 58q44 57 46 156q0 96 -46 154q-43 60 -119 60q-74 0 -119 -60q-44 -56 -46 -154q0 -95 46 -156z" />
    <glyph glyph-name="Ocircumflex" unicode="&#xef;" horiz-adv-x="576" 
d="M403 475h-231v-476h-94v552h418v-552h-93v476z" />
    <glyph glyph-name="Ocircumflex" unicode="&#x43f;" horiz-adv-x="576" 
d="M403 475h-231v-476h-94v552h418v-552h-93v476z" />
    <glyph glyph-name="apple" unicode="&#xf0;" horiz-adv-x="608" 
d="M157 96v-310h-92v765h92v-95q29 48 54 68q24 18 59 32q29 9 66 11q63 0 117 -36q50 -32 80 -102q28 -64 30 -152q0 -125 -61 -209q-59 -83 -170 -83q-36 0 -66 10q-29 8 -56 29q-24 22 -53 72zM176 389q-17 -49 -19 -114q0 -93 40 -154q41 -59 114 -59q68 0 111 52
q45 51 45 160q0 124 -47 171q-45 47 -107 49q-41 0 -82 -27q-35 -26 -55 -78z" />
    <glyph glyph-name="apple" unicode="&#x440;" horiz-adv-x="608" 
d="M157 96v-310h-92v765h92v-95q29 48 54 68q24 18 59 32q29 9 66 11q63 0 117 -36q50 -32 80 -102q28 -64 30 -152q0 -125 -61 -209q-59 -83 -170 -83q-36 0 -66 10q-29 8 -56 29q-24 22 -53 72zM176 389q-17 -49 -19 -114q0 -93 40 -154q41 -59 114 -59q68 0 111 52
q45 51 45 160q0 124 -47 171q-45 47 -107 49q-41 0 -82 -27q-35 -26 -55 -78z" />
    <glyph glyph-name="Ograve" unicode="&#xf1;" horiz-adv-x="551" 
d="M417 136v5h92v-5q0 -38 -28 -73q-25 -37 -73 -59q-46 -19 -109 -19q-121 0 -188 77q-65 77 -66 214q0 133 66 213q68 77 188 78q64 0 109 -21q47 -20 73 -55q28 -32 28 -77v-5h-92v5q2 30 -27 53q-26 21 -86 23q-68 0 -115 -51t-48 -163q0 -113 48 -164q45 -50 115 -50
q58 0 86 22q26 23 27 52z" />
    <glyph glyph-name="Ograve" unicode="&#x441;" horiz-adv-x="551" 
d="M417 136v5h92v-5q0 -38 -28 -73q-25 -37 -73 -59q-46 -19 -109 -19q-121 0 -188 77q-65 77 -66 214q0 133 66 213q68 77 188 78q64 0 109 -21q47 -20 73 -55q28 -32 28 -77v-5h-92v5q2 30 -27 53q-26 21 -86 23q-68 0 -115 -51t-48 -163q0 -113 48 -164q45 -50 115 -50
q58 0 86 22q26 23 27 52z" />
    <glyph glyph-name="Uacute" unicode="&#xf2;" horiz-adv-x="494" 
d="M47 551h398v-76h-150v-476h-94v476h-154v76z" />
    <glyph glyph-name="Uacute" unicode="&#x442;" horiz-adv-x="494" 
d="M47 551h398v-76h-150v-476h-94v476h-154v76z" />
    <glyph glyph-name="Ucircumflex" unicode="&#xf3;" horiz-adv-x="578" 
d="M242 2l11 21l-238 528h102l184 -410l173 410h93l-233 -551q-45 -110 -78 -147t-67 -52t-94 -15h-70v77h53q39 0 66 10q29 9 47 32q18 19 51 97z" />
    <glyph glyph-name="Ucircumflex" unicode="&#x443;" horiz-adv-x="578" 
d="M242 2l11 21l-238 528h102l184 -410l173 410h93l-233 -551q-45 -110 -78 -147t-67 -52t-94 -15h-70v77h53q39 0 66 10q29 9 47 32q18 19 51 97z" />
    <glyph glyph-name="Ugrave" unicode="&#xf4;" horiz-adv-x="964" 
d="M530 -214h-92v310q-29 -50 -53 -72q-26 -20 -56 -29q-30 -10 -66 -10q-111 0 -170 83q-61 84 -61 209q2 88 30 152q30 70 80 102q54 36 117 36q37 -2 66 -11q37 -15 59 -32q25 -20 54 -68v310h92v-310q28 47 55 68q23 18 58 32q31 9 67 11q64 0 116 -36q50 -32 81 -102
q27 -65 29 -152q0 -126 -60 -209q-61 -83 -170 -83q-36 0 -67 10q-28 8 -55 29q-22 21 -54 72v-310zM438 275q-2 65 -19 114q-20 52 -55 78q-40 27 -82 27q-62 -2 -107 -49q-47 -47 -47 -171q0 -109 45 -160q43 -52 111 -52q73 0 114 59q40 61 40 154zM549 389
q-17 -49 -19 -114q0 -94 41 -154q41 -59 114 -59q68 0 111 52q44 51 44 160q0 124 -46 171q-45 47 -107 49q-43 0 -82 -27q-35 -26 -56 -78z" />
    <glyph glyph-name="Ugrave" unicode="&#x444;" horiz-adv-x="964" 
d="M530 -214h-92v310q-29 -50 -53 -72q-26 -20 -56 -29q-30 -10 -66 -10q-111 0 -170 83q-61 84 -61 209q2 88 30 152q30 70 80 102q54 36 117 36q37 -2 66 -11q37 -15 59 -32q25 -20 54 -68v310h92v-310q28 47 55 68q23 18 58 32q31 9 67 11q64 0 116 -36q50 -32 81 -102
q27 -65 29 -152q0 -126 -60 -209q-61 -83 -170 -83q-36 0 -67 10q-28 8 -55 29q-22 21 -54 72v-310zM438 275q-2 65 -19 114q-20 52 -55 78q-40 27 -82 27q-62 -2 -107 -49q-47 -47 -47 -171q0 -109 45 -160q43 -52 111 -52q73 0 114 59q40 61 40 154zM549 389
q-17 -49 -19 -114q0 -94 41 -154q41 -59 114 -59q68 0 111 52q44 51 44 160q0 124 -46 171q-45 47 -107 49q-43 0 -82 -27q-35 -26 -56 -78z" />
    <glyph glyph-name="dotlessi" unicode="&#xf5;" horiz-adv-x="535" 
d="M265 209l-143 -209h-96l192 279l-180 272h105l129 -193l132 193h95l-180 -263l189 -288h-106z" />
    <glyph glyph-name="dotlessi" unicode="&#x445;" horiz-adv-x="535" 
d="M265 209l-143 -209h-96l192 279l-180 272h105l129 -193l132 193h95l-180 -263l189 -288h-106z" />
    <glyph glyph-name="circumflex" unicode="&#xf6;" horiz-adv-x="639" 
d="M498 0h-435v552h94v-476h231v476h94v-477h115v-197h-99v122z" />
    <glyph glyph-name="circumflex" unicode="&#x446;" horiz-adv-x="639" 
d="M498 0h-435v552h94v-476h231v476h94v-477h115v-197h-99v122z" />
    <glyph glyph-name="circumflex" unicode="&#x2c6;" horiz-adv-x="639" 
d="M498 0h-435v552h94v-476h231v476h94v-477h115v-197h-99v122z" />
    <glyph glyph-name="tilde" unicode="&#xf7;" horiz-adv-x="589" 
d="M424 459v92h92v-551h-92v275q-25 -42 -55 -67q-25 -20 -57 -33q-30 -11 -64 -11q-74 0 -130 42q-53 44 -53 175v170h92v-132q0 -120 32 -146q34 -26 80 -26q39 0 76 25q37 22 58 66q21 45 21 121z" />
    <glyph glyph-name="tilde" unicode="&#x447;" horiz-adv-x="589" 
d="M424 459v92h92v-551h-92v275q-25 -42 -55 -67q-25 -20 -57 -33q-30 -11 -64 -11q-74 0 -130 42q-53 44 -53 175v170h92v-132q0 -120 32 -146q34 -26 80 -26q39 0 76 25q37 22 58 66q21 45 21 121z" />
    <glyph glyph-name="tilde" unicode="&#x2dc;" horiz-adv-x="589" 
d="M424 459v92h92v-551h-92v275q-25 -42 -55 -67q-25 -20 -57 -33q-30 -11 -64 -11q-74 0 -130 42q-53 44 -53 175v170h92v-132q0 -120 32 -146q34 -26 80 -26q39 0 76 25q37 22 58 66q21 45 21 121z" />
    <glyph glyph-name="macron" unicode="&#xf8;" horiz-adv-x="771" 
d="M706 0h-643v552h94v-476h180v476h94v-476h181v476h94v-552z" />
    <glyph glyph-name="macron" unicode="&#x448;" horiz-adv-x="771" 
d="M706 0h-643v552h94v-476h180v476h94v-476h181v476h94v-552z" />
    <glyph glyph-name="breve" unicode="&#xf9;" horiz-adv-x="862" 
d="M722 0h-659v552h94v-476h180v476h94v-476h181v476h94v-477h115v-197h-99v122z" />
    <glyph glyph-name="breve" unicode="&#x449;" horiz-adv-x="862" 
d="M722 0h-659v552h94v-476h180v476h94v-476h181v476h94v-477h115v-197h-99v122z" />
    <glyph glyph-name="dotaccent" unicode="&#xfa;" horiz-adv-x="660" 
d="M47 551h248v-215h71q238 0 238 -170q0 -86 -69.5 -126.5t-166.5 -40.5h-167v476h-154v76zM295 261v-179h83q128 0 128 87q0 34 -18.5 55t-46 29t-56.5 8h-90z" />
    <glyph glyph-name="dotaccent" unicode="&#x44a;" horiz-adv-x="660" 
d="M47 551h248v-215h71q238 0 238 -170q0 -86 -69.5 -126.5t-166.5 -40.5h-167v476h-154v76zM295 261v-179h83q128 0 128 87q0 34 -18.5 55t-46 29t-56.5 8h-90z" />
    <glyph glyph-name="ring" unicode="&#xfb;" horiz-adv-x="739" 
d="M481 166q0 -86 -70 -126.5t-167 -40.5h-166v552h94v-215h70q239 0 239 -170zM172 261v-179h83q128 0 128 87q0 34 -18.5 55t-46 29t-56.5 8h-90zM571 -3v550h92v-550h-92z" />
    <glyph glyph-name="ring" unicode="&#x44b;" horiz-adv-x="739" 
d="M481 166q0 -86 -70 -126.5t-167 -40.5h-166v552h94v-215h70q239 0 239 -170zM172 261v-179h83q128 0 128 87q0 34 -18.5 55t-46 29t-56.5 8h-90zM571 -3v550h92v-550h-92z" />
    <glyph glyph-name="cedilla" unicode="&#xfc;" horiz-adv-x="539" 
d="M481 166q0 -86 -70 -126.5t-167 -40.5h-166v552h94v-215h70q239 0 239 -170zM172 261v-179h83q128 0 128 87q0 34 -18.5 55t-46 29t-56.5 8h-90z" />
    <glyph glyph-name="cedilla" unicode="&#x44c;" horiz-adv-x="539" 
d="M481 166q0 -86 -70 -126.5t-167 -40.5h-166v552h94v-215h70q239 0 239 -170zM172 261v-179h83q128 0 128 87q0 34 -18.5 55t-46 29t-56.5 8h-90z" />
    <glyph glyph-name="hungarumlaut" unicode="&#xfd;" horiz-adv-x="551" 
d="M414 264h-235v69h232q-10 67 -44 106q-48 51 -115 51q-58 0 -86 -23q-28 -21 -28 -53v-5h-92v5q0 43 29 77q26 35 72 55q47 21 110 21q120 0 187 -78q66 -78 66 -213q0 -137 -66 -214q-65 -77 -187 -77q-62 0 -110 19q-46 21 -72 59q-29 37 -29 73v5h92v-5q0 -29 28 -52
q28 -22 86 -22q68 0 115 50t47 152z" />
    <glyph glyph-name="hungarumlaut" unicode="&#x44d;" horiz-adv-x="551" 
d="M414 264h-235v69h232q-10 67 -44 106q-48 51 -115 51q-58 0 -86 -23q-28 -21 -28 -53v-5h-92v5q0 43 29 77q26 35 72 55q47 21 110 21q120 0 187 -78q66 -78 66 -213q0 -137 -66 -214q-65 -77 -187 -77q-62 0 -110 19q-46 21 -72 59q-29 37 -29 73v5h92v-5q0 -29 28 -52
q28 -22 86 -22q68 0 115 50t47 152z" />
    <glyph glyph-name="ogonek" unicode="&#xfe;" horiz-adv-x="824" 
d="M397 119q43 -58 119 -58q74 0 119 58q46 59 46 156q0 96 -46 154q-43 60 -119 60q-74 0 -119 -60q-45 -57 -45 -154q0 -96 45 -156zM332 57q-76 73 -76 203l-84 1v-262h-94v553h94v-216h88q14 99 72 156q79 74 184 74q107 0 184 -74t77 -217q0 -145 -77 -218
q-76 -73 -184 -73t-184 73z" />
    <glyph glyph-name="ogonek" unicode="&#x44e;" horiz-adv-x="824" 
d="M397 119q43 -58 119 -58q74 0 119 58q46 59 46 156q0 96 -46 154q-43 60 -119 60q-74 0 -119 -60q-45 -57 -45 -154q0 -96 45 -156zM332 57q-76 73 -76 203l-84 1v-262h-94v553h94v-216h88q14 99 72 156q79 74 184 74q107 0 184 -74t77 -217q0 -145 -77 -218
q-76 -73 -184 -73t-184 73z" />
    <glyph glyph-name="fl" unicode="&#xff;" horiz-adv-x="543" 
d="M301 214l-145 -214h-108l159 225q-130 29 -130 161q0 88 56 128t167 40h167v-555h-94v215h-72zM374 295v179h-84q-66 0 -95.5 -18.5t-29.5 -68.5q1 -55 32.5 -73.5t88.5 -18.5h88z" />
    <glyph glyph-name="fl" unicode="&#x44f;" horiz-adv-x="543" 
d="M301 214l-145 -214h-108l159 225q-130 29 -130 161q0 88 56 128t167 40h167v-555h-94v215h-72zM374 295v179h-84q-66 0 -95.5 -18.5t-29.5 -68.5q1 -55 32.5 -73.5t88.5 -18.5h88z" />
    <glyph glyph-name="Otilde" unicode="&#x152;" horiz-adv-x="708" 
d="M298 0h-225v353h-92v75h92v338h211q156 0 226 -43q72 -40 112 -128t40 -209t-37 -201q-34 -83 -109 -136q-73 -49 -218 -49zM172 353v-269h118q105 0 157 31q52 28 82 96q29 68 30 167q0 94 -27 170q-25 71 -78 107q-56 34 -166 34h-116v-261h138v-75h-138z" />
    <glyph glyph-name="oe" unicode="&#x153;" horiz-adv-x="237" 
d="M165 379v-379h-92v343l-92 -36v82l92 36v371h92v-335l92 33v-82z" />
    <glyph glyph-name="florin" unicode="&#x192;" 
d="M351 436l-124 -620h-93l125 620h-80l15 77h80l13 64q44 219 226 219q34 0 76 -7l-14 -75q-16 2 -60 5q-45 0 -82 -22q-33 -20 -51 -103l-16 -81h160l-15 -77h-160z" />
    <glyph glyph-name="dagger" unicode="&#x2020;" 
d="M377 488l16 -672h-111l16 672l-176 -13v105l176 -15l-16 201h111l-16 -201l174 15v-105z" />
    <glyph glyph-name="currency" unicode="&#x2219;" 
d="M402 210h-130v130h130v-130z" />
    <glyph glyph-name="cent" 
d="M381 93v-93h-77v93q-81 15 -122 52q-42 39 -65 98q-23 63 -23 139q0 75 21 133q20 58 68 103q46 43 121 55v93h77v-93q70 -9 103 -31q33 -21 53 -53q20 -35 20 -64v-5h-92v5q0 54 -84 70v-426q46 8 64 32q18 20 20 42v5h92v-5q0 -40 -41 -89q-40 -46 -135 -61zM304 173
v421q-42 -14 -68 -43q-23 -31 -34 -70q-12 -42 -12 -99q0 -59 11 -96q12 -39 35 -69q25 -28 68 -44z" />
    <glyph glyph-name="sterling" 
d="M567 0h-486v84q66 33 90 85t40 136l14 74h-103v77h119l24 117q15 85 40 127q24 40 63 65q38 23 91 23q24 0 44 -4q21 -3 64 -25v-78q-56 21 -98 23q-33 0 -55 -14q-21 -15 -34 -47q-10 -30 -27 -105l-18 -82h163v-77h-178l-13 -66q-9 -44 -25 -95q-16 -49 -33 -74
q-16 -27 -54 -60h372v-84z" />
    <glyph glyph-name="acute" horiz-adv-x="1324" 
d="M80 368q-26 34 -37 73.5t-13 93.5q0 108 50 168q51 63 123 63q71 0 122 -63q50 -62 50 -168q0 -105 -50 -167q-47 -61 -122 -62q-74 0 -123 62zM231 0h-96l545 766h87zM589 62q-49 62 -50 167q0 106 50 168q51 63 123 63q70 0 122 -63q50 -61 50 -168q0 -105 -50 -167
t-122 -62q-74 0 -123 62zM998 62q-49 62 -50 167q0 104 50 168q51 63 123 63q71 0 122 -63q50 -59 50 -168q0 -105 -50 -167q-48 -62 -122 -62t-123 62zM647 344q-22 -42 -24 -115q0 -68 24 -115q25 -44 65 -45q39 0 64 45q22 45 24 115q0 70 -24 115q-24 46 -64 46
q-38 0 -65 -46zM139 651q-24 -46 -24 -116q0 -68 24 -115q23 -43 64 -45q40 0 64 45q24 47 24 115q0 70 -24 116q-24 45 -64 45q-38 0 -64 -45zM1057 344q-23 -44 -25 -115q0 -69 25 -115q25 -44 64 -45q40 0 64 45q22 45 24 115q0 70 -24 115q-24 46 -64 46q-39 0 -64 -46z
" />
    <glyph glyph-name="notequal" 
d="M338 222h274v-69h-326l-72 -91h-98l73 91h-127v69h179l85 107h-264v65h318l73 96h96l-71 -92h134v-69h-190z" />
    <glyph glyph-name="AE" horiz-adv-x="1002" 
d="M953 0h-459v210h-255l-138 -210h-101l494 766h432v-85h-333v-241h291v-76h-291v-280h360v-84zM288 287h206v318z" />
    <glyph glyph-name="Oslash" horiz-adv-x="937" 
d="M388 546q51 -19 87 -81q21 41 48 60q20 15 62 31q32 9 76 11q97 0 160 -65q63 -63 63 -207v-31h-391v-18q0 -68 47 -127q50 -57 133 -57q62 0 89 26q26 28 26 48v5h96v-5q0 -35 -30 -73q-31 -38 -81 -59q-54 -19 -105 -19q-62 0 -121 25q-57 23 -96 105
q-52 -72 -107 -101q-56 -29 -122 -29q-77 0 -123 41q-43 42 -45 109q0 44 22 80q24 36 78 61q49 24 197 57l58 12v23q0 79 -35 104q-33 24 -89 26q-60 0 -92 -26q-30 -23 -32 -59v-8h-99v7q0 38 30 75q30 36 82 58q50 20 108 22q54 0 106 -21zM409 255v24l-34 -8
q-106 -28 -150 -48q-36 -18 -52 -41q-16 -24 -16 -49q0 -39 30 -59q28 -18 65 -20q35 0 76 25q40 24 61 73q20 48 20 103zM554 445q-43 -42 -55 -112h297v11q0 34 -19 72q-20 40 -54 56q-33 18 -71 18q-56 0 -98 -45z" />
    <glyph glyph-name="infinity" 
d="M352 202l-16 16q-23 -42 -67 -81q-41 -34 -98 -34q-70 0 -106 54q-33 52 -35 114q0 46 19 90q19 42 51 65q32 21 71 21q61 0 119 -65l34 -38l12 -14q42 67 84 93q39 24 81 24q61 0 101 -49t40 -120q0 -73 -39 -125q-39 -54 -99 -54q-61 0 -122 70zM172 169q56 0 119 97
l-8 10q-9 12 -47 49q-37 39 -69 39q-31 0 -50 -29q-18 -26 -20 -69q0 -46 22 -71q20 -26 53 -26zM498 379q-55 0 -116 -94l6 -9q15 -22 50 -56q38 -36 68 -36q26 0 46 30q20 29 20 68q0 42 -21 70q-21 27 -53 27z" />
    <glyph glyph-name="lessequal" 
d="M62 426l550 278v-86l-380 -192l380 -188v-85zM62 77h550v-77h-550v77z" />
    <glyph glyph-name="greaterequal" 
d="M62 618v86l550 -278l-550 -273v85l379 188zM62 0v77h550v-77h-550z" />
    <glyph glyph-name="yen" 
d="M390 126v-126h-92v126h-192v69h192v92h-192v73h186l-256 406h103l212 -333l197 333h89l-241 -406h181v-73h-187v-92h187v-69h-187z" />
    <glyph glyph-name="mu" horiz-adv-x="597" 
d="M107 18l-40 -202h-92l147 735h91l-62 -314q-10 -46 -12 -83q0 -45 26 -65q24 -18 61 -20q44 0 84 23q43 25 71 67q32 46 46 122l55 270h91l-110 -551h-91l18 94q-56 -60 -102 -85q-46 -24 -91 -24q-55 0 -90 33z" />
    <glyph glyph-name="partialdiff" horiz-adv-x="658" 
d="M374 547q45 0 100 -23q-19 95 -90 146q-70 48 -183 49h-13v77h10q128 0 216 -51q90 -49 139 -151q46 -96 48 -216q0 -109 -44 -203q-46 -92 -118 -142q-72 -48 -158 -48q-64 0 -117 27q-50 26 -80 79q-26 49 -26 109q0 88 44 170q46 83 117 130q73 47 155 47zM190 103
q37 -41 96 -41q55 0 104 34q52 36 83 106q32 72 32 144q0 63 -38 93q-38 32 -95 32q-56 0 -106 -37q-52 -34 -82 -98q-29 -60 -31 -125q0 -65 37 -108z" />
    <glyph glyph-name="summation" horiz-adv-x="612" 
d="M582 -99v-85h-552v85l262 425l-238 363v77h513v-77h-392l227 -348l-274 -440h454z" />
    <glyph glyph-name="product" horiz-adv-x="658" 
d="M463 364h-315q0 -121 59 -219q57 -91 174 -91q81 0 113 32q33 33 33 74v5h93v-5q0 -46 -31 -92q-30 -45 -85 -69q-53 -22 -126 -22q-147 0 -240 102q-47 54 -70 128.5t-23 175.5q0 199 93 304q92 102 240 102q69 0 126 -22q53 -21 85 -70q31 -48 31 -91v-5h-93v5
q0 29 -17 54q-17 26 -50 38q-34 14 -79 14q-116 0 -175 -93q-45 -75 -54 -179h311v-76z" />
    <glyph glyph-name="pi" horiz-adv-x="551" 
d="M377 264h-236q0 -101 48 -152q45 -50 115 -50q58 0 86 22q27 24 27 52v5h92v-5q0 -38 -28 -73q-25 -37 -73 -59q-46 -19 -109 -19q-121 0 -188 77q-66 78 -66 214q0 133 66 213q69 78 188 78q64 0 109 -21q47 -20 73 -55q28 -32 28 -77v-5h-92v5q0 32 -27 53
q-28 23 -86 23q-68 0 -115 -51q-33 -38 -45 -106h233v-69z" />
    <glyph glyph-name="ordmasculine" horiz-adv-x="248" 
d="M165 -23h-81v359h81v-359zM165 428h-81v360h81v-360z" />
    <glyph glyph-name="Omega" horiz-adv-x="405" 
d="M246 317h-68v386l-95 -36v65l95 45h68v-460z" />
    <glyph glyph-name="ae" horiz-adv-x="405" 
d="M352 317h-310v58q0 33 24 78q24 47 78 86l31 24l29 22q47 36 55 51q9 18 9 35q0 21 -21 39q-20 15 -58 17q-31 0 -50 -11q-16 -10 -17 -23v-12h-68v13q0 30 34 63q32 31 104 31q83 0 117 -34q33 -33 35 -81q0 -23 -11 -50q-10 -25 -42 -51q-34 -29 -53 -42l-23 -14
q-102 -67 -102 -130v-3h239v-66z" />
    <glyph glyph-name="oslash" horiz-adv-x="405" 
d="M151 539h-30v62h36q39 0 58 10q21 12 34 28q14 19 14 35q0 20 -16 36q-15 15 -55 17q-38 0 -55 -13q-16 -12 -16 -25v-12h-61v12q0 25 19 48q19 24 52 38q32 13 71 13q56 0 95 -27q38 -29 38 -76q0 -28 -12 -54q-12 -25 -63 -55q61 -28 78 -59q17 -29 17 -64
q0 -55 -42 -102q-42 -45 -126 -45q-57 0 -95 27q-34 26 -36 69v11h65v-11q0 -10 13 -23q14 -11 58 -11q50 0 71 27q19 27 19 58q0 33 -31 60q-32 26 -100 26z" />
    <glyph glyph-name="questiondown" horiz-adv-x="574" 
d="M284 289v67h92v-47q0 -80 -27 -131q-23 -49 -53 -82l-39 -42q-35 -38 -54 -67q-15 -26 -15 -51q0 -41 37 -69q38 -28 93 -28q48 0 73 18q26 17 26 54v5h96v-5q0 -35 -26 -71q-25 -36 -74 -56q-48 -21 -105 -21q-61 0 -110 23q-53 22 -79 61q-27 39 -27 82q0 27 11 60
q11 36 68 89l35 31q29 28 56 68q22 38 22 112zM284 460v91h92v-91h-92z" />
    <glyph glyph-name="exclamdown" horiz-adv-x="589" 
d="M574 0h-501v343l-92 -34v81l92 34v342h99v-303l92 32v-81l-92 -33v-297h402v-84z" />
    <glyph glyph-name="radical" horiz-adv-x="907" 
d="M189 270l-98 -55l-37 66l177 103l255 -470l312 897h83l-348 -995h-99z" />
    <glyph glyph-name="approxequal" 
d="M120 103h-58v9q0 65 37 112q39 48 103 48q16 0 31 -3q13 -2 37 -11q22 -9 58 -30l60 -33q51 -28 90 -30q36 0 53 26t17 57v9h64v-9q0 -80 -46 -122q-49 -38 -99 -38t-130 46l-50 29q-55 32 -92 32q-20 0 -37 -10q-17 -11 -28 -33q-10 -25 -10 -40v-9zM120 295h-58v8
q0 65 37 112q40 48 103 48q21 0 31 -3q20 -4 37 -12q28 -12 58 -29l60 -33q51 -28 90 -30q35 0 53 26q17 26 17 58v7h64v-7q0 -83 -46 -122q-48 -38 -99 -39q-47 0 -130 46l-50 30q-58 32 -92 32q-17 0 -37 -10q-16 -10 -28 -34q-10 -25 -10 -40v-8z" />
    <glyph glyph-name="Delta" horiz-adv-x="766" 
d="M734 0h-704v92l297 674h102l305 -674v-92zM367 664l-253 -572h509z" />
    <glyph glyph-name="nonbreakingspace" horiz-adv-x="123" 
 />
    <glyph glyph-name="OE" horiz-adv-x="601" 
d="M348 528q28 -4 84 -39q-16 42 -47 89q-25 35 -89 85l-110 -100l-52 57l90 79q-59 18 -131 20h-12v77h16q67 0 104 -5q50 -7 95 -27l106 97l52 -58l-88 -79q74 -59 113 -122q37 -58 59 -142q21 -79 21 -158q0 -145 -68 -231q-69 -86 -194 -86q-117 0 -188 78
q-71 80 -71 202q0 82 33 142q34 62 93 95q60 33 126 33q29 0 58 -7zM180 117q45 -55 119 -55q73 0 118 55q46 58 46 144q0 85 -46 142t-118 57q-71 0 -119 -57q-46 -55 -46 -142q0 -88 46 -144z" />
    <glyph glyph-name="fraction" 
d="M375 18l18 -202h-111l16 202l-176 -18v110l176 -14v392l-176 -13v105l176 -15l-16 201h111l-18 -201l176 15v-105l-176 13v-392l176 14v-110z" />
  </font>
</defs>
</svg>
